<?xml version="1.0" standalone="no"?>
<!DOCTYPE svg PUBLIC "-//W3C//DTD SVG 1.1//EN" "http://www.w3.org/Graphics/SVG/1.1/DTD/svg11.dtd" >
<svg xmlns="http://www.w3.org/2000/svg">
<metadata>
This is a custom SVG webfont generated by Font Squirrel.
Copyright   :  1990 1995 2002 Adobe Systems Incorporated All rights reserved  1990 2002 The Monotype Corporation All rights reserved
Designer    : FH Pierpont
Foundry URL : httpwwwadobecomtype
</metadata>
<defs>
<font id="PlantinStdBoldItalic" horiz-adv-x="681" >
<font-face units-per-em="2048" ascent="1423" descent="-625" />
<missing-glyph horiz-adv-x="569" />
<glyph unicode=" "  horiz-adv-x="569" />
<glyph unicode="&#x09;" horiz-adv-x="569" />
<glyph unicode="&#xa0;" horiz-adv-x="569" />
<glyph unicode="!" horiz-adv-x="747" d="M121 143q0 70 48 119t119.5 49t121 -49t49.5 -118.5t-49.5 -120t-120.5 -50.5q-70 0 -119 49t-49 121zM354 453l156 858q12 70 56 92t126 22q94 0 123 -48q13 -21 13 -46q0 -33 -21 -74l-375 -804h-78z" />
<glyph unicode="&#x22;" horiz-adv-x="1136" d="M305 1243q0 66 42 110t105.5 44t105.5 -44t42 -110q0 -51 -20 -129l-103 -383h-49l-102 383q-21 78 -21 129zM788 1243q0 66 42 110t105.5 44t105.5 -44t42 -110q0 -51 -20 -129l-102 -383h-50l-102 383q-21 78 -21 129z" />
<glyph unicode="#" horiz-adv-x="1368" d="M150 342v188h208l62 304h-270v190h307l84 383h188l-82 -383h354l82 383h189l-82 -383h170v-190h-207l-61 -304h268v-188h-305l-82 -379h-191l84 379h-358l-80 -379h-190l79 379h-167zM547 532h356l62 302h-355z" />
<glyph unicode="$" horiz-adv-x="1110" d="M74 352q0 43 11 59.5t40 16.5h68q41 0 64.5 -14.5t23.5 -30.5q0 -14 -5.5 -48t-5.5 -50q0 -76 29 -119t96 -70l160 498q-145 111 -203.5 197t-58.5 186q0 156 129 265.5t311 109.5l64 -4l24 77h111l-31 -96q147 -39 218 -137t71 -195q0 -35 -22.5 -47t-88.5 -12 q-53 0 -69.5 9t-16.5 36q0 18 3 61t1 58.5t-13 44.5t-37.5 48t-74.5 40l-141 -434q156 -119 216.5 -205t60.5 -182q0 -180 -155 -315q-144 -125 -352 -124h-32l-51 -159h-111l55 176q-137 33 -212.5 129t-75.5 231zM500 76q125 0 201.5 69.5t76.5 176.5q0 113 -133 204z M522 1067q0 -96 121 -195l125 385q-119 0 -182.5 -52t-63.5 -138z" />
<glyph unicode="%" horiz-adv-x="1898" d="M195 946q0 201 130 340t314 139q137 0 213 -65.5t76 -194.5q0 -195 -124 -338t-325 -143q-284 0 -284 262zM244 -70l1341 1495h197l-1331 -1495h-207zM436 811q0 -63 56 -63q29 0 65 36q35 35 82 245t47 265q0 59 -57 60q-35 0 -66 -31q-25 -25 -76 -237t-51 -275z M1124 225q0 201 130 340.5t315 139.5q137 0 213 -66t76 -195q0 -195 -124 -338t-325 -143q-285 0 -285 262zM1366 90.5q0 -63.5 55 -63.5q29 0 66 36q35 35 82 245t47 265q0 59 -57 60q-35 0 -66 -31q-25 -25 -76 -236.5t-51 -275z" />
<glyph unicode="&#x26;" horiz-adv-x="1961" d="M137 459q0 139 99.5 251.5t283.5 161.5q-104 68 -104 193q0 154 159.5 257t434.5 103q162 0 264 -60t102 -155q0 -51 -36.5 -83.5t-94.5 -32.5q-119 0 -137 112q-12 68 -33.5 90.5t-95.5 22.5q-113 0 -191.5 -75t-78.5 -179q0 -121 127 -164l-33 -76q-152 -2 -245 -82.5 t-93 -214.5q0 -176 155.5 -282.5t389.5 -106.5q203 0 330.5 91.5t127.5 238.5q0 115 -82.5 190.5t-207.5 75.5q-61 0 -100.5 -25.5t-39.5 -66.5q0 -33 28 -50.5t62.5 -22.5t62.5 -30.5t28 -74.5q0 -41 -33 -71.5t-86 -30.5q-70 0 -120 61t-50 145q0 164 117.5 284t279.5 120 q72 0 146.5 -31t125 -66.5t104.5 -66.5t91 -31q33 0 57.5 25.5t24.5 60.5q0 47 -34 75t-75 38t-74.5 36.5t-33.5 71.5q0 41 33.5 72t81.5 31q88 0 148 -79t60 -194q0 -143 -91 -246.5t-218 -103.5q-68 0 -131 29q20 -55 21 -129q0 -209 -204 -351.5t-544 -142.5 q-311 0 -494.5 146.5t-183.5 341.5z" />
<glyph unicode="'" horiz-adv-x="569" d="M248 1243q0 66 42 110t105.5 44t105.5 -44t42 -110q0 -51 -21 -129l-102 -383h-49l-103 383q-20 78 -20 129z" />
<glyph unicode="(" horiz-adv-x="892" d="M209 332q0 399 261 716.5t640 376.5l-33 -106q-139 -49 -261 -199.5t-197.5 -337t-118.5 -374t-43 -328.5q0 -225 114 -373l-30 -100q-332 272 -332 725z" />
<glyph unicode=")" horiz-adv-x="892" d="M-199 -393l33 106q139 49 261 199.5t198 337t119 374t43 328.5q0 225 -115 373l31 100q332 -272 331 -725q0 -399 -261 -716.5t-640 -376.5z" />
<glyph unicode="*" horiz-adv-x="1044" d="M166 1163l53 80l297 -117l162 299l80 -28l-17 -328l332 -57v-99l-307 -79l41 -328l-92 -29l-174 275l-295 -148l-58 74l209 258z" />
<glyph unicode="+" horiz-adv-x="1366" d="M201 571v205h452v453h205v-453h453v-205h-453v-452h-205v452h-452z" />
<glyph unicode="," horiz-adv-x="745" d="M8 -344l17 55q2 10 33.5 21.5t80.5 34t82 55.5q68 68 68 123q0 29 -20.5 52t-44 38.5t-44 48.5t-20.5 78q0 68 47 115t117 47q82 0 136 -61.5t54 -156.5q0 -113 -58.5 -209t-141.5 -151t-161.5 -85t-134.5 -30q-16 0 -10 25z" />
<glyph unicode="-" horiz-adv-x="937" d="M82 324l78 251h692l-78 -251h-692z" />
<glyph unicode="." horiz-adv-x="598" d="M66 143q0 70 49 119t118 49q72 0 121 -49t49 -118.5t-50 -120t-119.5 -50.5t-118.5 49t-49 121z" />
<glyph unicode="/" horiz-adv-x="569" d="M72 -37l338 1462h231l-336 -1462h-233z" />
<glyph unicode="0" horiz-adv-x="1110" d="M123 428q0 156 76.5 401.5t199.5 368.5q168 168 373 168q152 0 256.5 -121t104.5 -303q0 -156 -43 -321.5t-121 -311t-204 -240t-278 -94.5q-154 0 -259 131.5t-105 321.5zM381 233q0 -168 121 -167q25 0 46 8t40.5 29.5t35 41t31.5 57.5l28 65q11 28 27 79l24 81l26 89 l24 88q90 315 90 504q0 74 -28.5 117t-79.5 43q-43 0 -79 -32t-66.5 -97.5t-50 -121.5t-48.5 -153q-141 -479 -141 -631z" />
<glyph unicode="1" horiz-adv-x="1110" d="M141 0l23 90q182 2 246 246l204 764h-241l26 90q127 8 250 63.5t164 112.5h156l-287 -1071q-9 -33 -9 -61q0 -119 163 -144l-23 -90h-672z" />
<glyph unicode="2" horiz-adv-x="1110" d="M-41 0l14 66l301 278l99 84l137 119l102 94q188 182 189 354q0 94 -60.5 147.5t-169.5 53.5q-154 0 -325 -129l-62 61q127 117 251 177.5t276 60.5q170 0 283.5 -91t113.5 -228q0 -166 -141 -308q-98 -98 -343 -260t-343 -250h456q86 0 114 15.5t44 85.5h92l-63 -330 h-965z" />
<glyph unicode="3" horiz-adv-x="1110" d="M-37 66q0 47 19.5 88t56.5 41q31 0 135.5 -64.5t194.5 -64.5q86 0 153.5 39.5t103.5 101t53 121t17 110.5q0 229 -274 230h-39l33 90h69q170 0 277.5 87t107.5 185q0 72 -56 119t-140 47q-137 0 -271 -117l-32 101q182 186 426 186q145 0 231 -65.5t86 -176.5 q0 -207 -289 -346q164 -115 164 -295q0 -207 -196.5 -357.5t-464.5 -150.5q-111 0 -238 21q-127 19 -127 70z" />
<glyph unicode="4" horiz-adv-x="1110" d="M61 399l11 170l778 797h258l-213 -797h209l-45 -170h-209l-115 -424h-282l114 424h-506zM205 569h407l156 580l-4 4z" />
<glyph unicode="5" horiz-adv-x="1110" d="M18 74q0 45 29 89t57 44q27 0 83.5 -32t137.5 -62.5t162 -30.5q129 0 215 81t86 202q0 131 -120.5 232t-393.5 124l252 620h525l32 80l82 -39l-116 -262h-514l-62 -151q229 -4 381 -138.5t152 -332.5q0 -92 -39 -181.5t-116 -167t-212 -126t-309 -48.5q-312 1 -312 99z " />
<glyph unicode="6" horiz-adv-x="1110" d="M119 444q0 131 44 261.5t134 249t216 210.5t304 146.5t383 54.5l70 -90q-287 0 -476.5 -136t-283.5 -356l4 -4q115 61 211 62q145 0 250.5 -109.5t105.5 -263.5q0 -197 -159.5 -345.5t-370.5 -148.5q-152 0 -253 71t-140 172t-39 226zM377 270q0 -98 44 -151t114 -53 q66 0 119 64.5t80.5 152.5t40.5 157.5t13 100.5q0 76 -43 118.5t-122 42.5q-78 0 -158 -34q-88 -277 -88 -398z" />
<glyph unicode="7" horiz-adv-x="1110" d="M236 971l129 370h835l-778 -1366h-135l653 1141h-414q-90 0 -131 -29.5t-65 -115.5h-94z" />
<glyph unicode="8" horiz-adv-x="1110" d="M72 338q0 123 93 205t316 151q-168 170 -168 312q0 156 128 258t323 102q172 0 286.5 -86t114.5 -215q0 -211 -350 -336q180 -213 180 -352q0 -170 -143 -286t-354 -116q-184 0 -305 95.5t-121 267.5zM258 272q0 -90 63.5 -148t163.5 -58q106 0 185.5 64.5t79.5 148.5 q0 70 -55.5 158.5t-147.5 174.5q-133 -55 -211 -148.5t-78 -191.5zM541 1110q0 -14 3 -28.5t10 -29.5l13 -29q6 -13 22 -33l24 -32q9 -12 31 -36l33 -38q11 -13 39 -43l42 -46q106 49 169.5 124.5t63.5 155.5q0 84 -66.5 142.5t-164.5 58.5q-90 0 -154.5 -49t-64.5 -117z " />
<glyph unicode="9" horiz-adv-x="1110" d="M35 57q236 29 350.5 77t222.5 157q111 111 180 266l-4 4q-115 -61 -211 -61q-147 0 -251.5 109.5t-104.5 262.5q0 197 160 345.5t371 148.5q199 0 314.5 -122t115.5 -355q0 -121 -40 -245t-127 -242.5t-210 -212t-305.5 -151.5t-397.5 -63zM510 801q0 -162 166 -162 q70 0 158 35q86 285 86 397q0 96 -41 150.5t-117 54.5q-66 0 -119 -65.5t-79.5 -154.5t-40 -157.5t-13.5 -97.5z" />
<glyph unicode=":" horiz-adv-x="747" d="M160 143q0 70 49 119t119 49q72 0 121 -49t49 -118.5t-50.5 -120t-120 -50.5t-118.5 49t-49 121zM352 754q0 70 49.5 119t118.5 49q72 0 121 -49.5t49 -119t-50 -119.5t-119.5 -50t-119 49t-49.5 121z" />
<glyph unicode=";" horiz-adv-x="745" d="M6 -344l17 55q2 10 33.5 21.5t80.5 34t82 55.5q68 68 68 123q0 29 -20.5 52t-44 38.5t-44 48.5t-20.5 78q0 68 47 115t117 47q82 0 136 -61.5t54 -156.5q0 -113 -58.5 -209t-141.5 -151t-161.5 -85t-134.5 -30q-12 0 -12 13q0 5 2 12zM350 786q0 70 48 119t120 49 t121 -49t49 -118.5t-49 -120t-121 -50.5q-70 0 -119 49t-49 121z" />
<glyph unicode="&#x3c;" horiz-adv-x="1366" d="M201 582v188l1110 465v-227l-826 -332l826 -332v-227z" />
<glyph unicode="=" horiz-adv-x="1366" d="M201 334v205h1112v-205h-1112zM201 815v205h1112v-205h-1112z" />
<glyph unicode="&#x3e;" horiz-adv-x="1366" d="M203 117v227l825 332l-825 332v227l1110 -465v-188z" />
<glyph unicode="?" horiz-adv-x="1044" d="M119 143q0 70 49 119t119 49q72 0 121 -49t49 -118.5t-50.5 -120t-120 -50.5t-118.5 49t-49 121zM276 428l80 305q16 66 32.5 85.5t55.5 19.5q14 0 68.5 -6.5t95.5 -6.5q119 0 197 56.5t78 142.5q0 61 -41 105.5t-121 44.5q-55 0 -106.5 -9.5t-75.5 -9.5q-59 0 -100.5 36 t-41.5 87q0 66 56.5 106.5t146.5 40.5q164 0 279.5 -131t115.5 -317q0 -90 -36.5 -184.5t-96.5 -153.5q-115 -115 -305 -123q-90 -2 -118.5 -18.5t-47.5 -69.5h-115z" />
<glyph unicode="@" horiz-adv-x="1703" d="M82 420q0 397 264 657t668 260q309 0 499.5 -179t190.5 -472q0 -291 -167 -488.5t-413 -197.5q-92 0 -144 46t-52 126q0 49 24 129l-4 4q-164 -305 -327 -305q-74 0 -117 58.5t-43 158.5q0 129 50 261t124 229.5t162 159t161 61.5q117 0 136 -150h4l32 115l234 8 l-199 -674q-11 -38 -11 -67t11 -49q23 -41 72 -41t117.5 42t136.5 113.5t115 190.5t47 252q0 268 -173 438t-446 170q-209 0 -377 -82t-268 -214t-153.5 -284.5t-53.5 -308.5q0 -334 212 -547t542 -213q106 0 217 29t222.5 89t205.5 166.5t145 248.5h58 q-115 -283 -334 -434.5t-516 -151.5q-371 0 -611.5 238.5t-240.5 607.5zM715 266q0 -39 15 -64.5t40 -25.5q45 0 112.5 88t119 221t51.5 244q0 129 -66 129q-78 0 -175 -226.5t-97 -365.5z" />
<glyph unicode="A" horiz-adv-x="1449" d="M-111 0l27 96q70 35 117 81t147 175l138 182l123 159l91 117q51 65 95 114l430 501h291l-123 -1163q-2 -17 -2 -32q0 -53 22 -82q29 -36 103 -52l-27 -96h-637l16 96q109 14 148 68.5t53 206.5l10 106h-501l-93 -143q-42 -67 -42 -119q0 -16 5 -31q17 -61 101 -88 l-12 -96h-480zM500 594h422l59 582l-4 4q-332 -389 -477 -586z" />
<glyph unicode="B" horiz-adv-x="1536" d="M-18 0l26 96q96 31 147.5 98.5t77.5 170.5l201 749q10 38 10 69q0 38 -15 65q-28 50 -112 52l27 97h703q494 0 493 -326q0 -137 -103.5 -229t-285.5 -119v-4q143 -39 225 -127t82 -199q0 -156 -139 -274.5t-426 -118.5h-911zM565 319q-12 -46 -12 -82q0 -55 29 -87 q47 -53 174 -54q143 0 245.5 96.5t102.5 233.5q0 104 -69.5 180t-217.5 76h-156zM688 778h186q166 0 246 90t80 203q0 229 -274 229h-99z" />
<glyph unicode="C" horiz-adv-x="1536" d="M168 532q0 170 73.5 332t198.5 286t305.5 199.5t380.5 75.5q301 0 541 -157l-82 -307h-119q0 174 -85 271t-234 97q-154 0 -276.5 -83t-193.5 -211t-108 -267t-37 -268q0 -190 93.5 -306t246.5 -116q283 0 457 385h154l-82 -338q-313 -154 -604 -154q-283 0 -456 162.5 t-173 398.5z" />
<glyph unicode="D" horiz-adv-x="1642" d="M33 0l24 96q104 51 144.5 104.5t79.5 196.5l174 656q15 57 15 100q0 132 -138 147l26 97h652q135 0 242.5 -39t174 -101.5t110.5 -147.5t61.5 -170t17.5 -177q0 -98 -25.5 -199.5t-83 -203t-140.5 -181.5t-210 -129t-278 -49h-846zM600 322q-11 -38 -11 -71q0 -52 28 -87 q46 -57 149 -58q162 0 278.5 120t167 285t50.5 341q0 197 -82 317.5t-248 120.5h-62z" />
<glyph unicode="E" horiz-adv-x="1515" d="M6 0l17 96q96 23 142 89.5t87 211.5l166 625q22 75 22 130q0 31 -7 56q-19 70 -114 92l15 97h1265l-65 -322h-115q-35 125 -82 175t-129 50h-370l-140 -518h185q143 0 215.5 35t128.5 129h112l-122 -463h-101q-23 121 -62.5 162t-131.5 41h-250l-105 -381 q-10 -36 -10 -66q0 -55 35 -89q53 -53 170 -54q158 0 317.5 68.5t239.5 197.5h129l-137 -362h-1305z" />
<glyph unicode="F" horiz-adv-x="1366" d="M8 0l27 96q96 43 139 102.5t80 198.5l180 670q12 45 12 82q0 46 -18 80q-33 61 -115 71l25 97h1182l-80 -330h-109q-23 125 -71 179t-150 54h-268l-142 -522h107q145 0 228 38t139 128h98l-111 -473h-106q-10 111 -60.5 161t-150.5 50h-168l-86 -315q-22 -64 -23 -116 q0 -33 10 -61q24 -72 134 -94l-13 -96h-690z" />
<glyph unicode="G" horiz-adv-x="1705" d="M174 565q0 362 293 611t719 249q160 0 319.5 -38.5t241.5 -98.5l-76 -309h-104q0 145 -96.5 247.5t-254 102.5t-289.5 -73.5t-216 -194.5t-130 -268.5t-46 -300.5q0 -186 96 -305t248 -119q139 0 235 61l88 324q11 39 11 69q0 104 -123 109l24 90h666l-25 -90 q-111 -25 -149.5 -66t-75.5 -180l-92 -338q-223 -76 -525 -76q-162 0 -290.5 35t-211.5 92.5t-137.5 135t-77 159.5t-22.5 172z" />
<glyph unicode="H" horiz-adv-x="1728" d="M35 0l24 96q78 41 115 98.5t72 182.5l188 698q14 53 14 95q0 38 -12 65q-25 57 -92 65l27 97h618l-26 -97q-74 -12 -113 -56t-66 -144l-86 -320h533l80 295q21 60 21 108q0 22 -5 42q-14 61 -96 75l26 97h613l-27 -97q-72 -12 -112.5 -57t-67.5 -143l-225 -815 q-11 -39 -11 -70q0 -32 12 -54q24 -44 99 -65l-25 -96h-616l25 96q70 10 111.5 58.5t68.5 144.5l98 365h-532l-101 -371q-11 -39 -11 -71q0 -92 93 -126l-24 -96h-590z" />
<glyph unicode="I" horiz-adv-x="854" d="M0 0l27 96q80 14 129 69.5t84 182.5l194 729q15 47 16 90q0 31 -9 60q-19 68 -93 73l27 97h626l-26 -97q-84 -23 -132 -92t-81 -190l-193 -721q-8 -31 -8 -58q0 -41 19 -73q31 -53 116 -70l-26 -96h-670z" />
<glyph unicode="J" horiz-adv-x="811" d="M-438 -199q0 63 44 108.5t105 45.5q70 0 108 -41t44 -90q6 -66 21.5 -93.5t58.5 -27.5q125 0 202 297l283 1055q16 59 16 102q0 46 -18 76q-35 57 -133 67l26 97h707l-27 -97q-92 -27 -146 -99.5t-99 -229.5l-254 -910q-49 -176 -158 -284q-86 -86 -197.5 -128 t-285.5 -42q-150 0 -223.5 57t-73.5 137z" />
<glyph unicode="K" horiz-adv-x="1515" d="M14 0l25 96q80 20 117 66.5t71 173.5l203 729q16 58 16 102q0 126 -131 133l25 97h672l-17 -97q-174 -31 -235 -270l-82 -311q662 371 661 500q0 76 -84 81l25 97h467l-16 -97q-14 -2 -27.5 -6t-30.5 -12l-28 -14q-12 -6 -32 -20l-31 -20q-11 -7 -34 -25l-34 -25l-36 -28 l-36 -28q-252 -195 -430 -307l321 -553q92 -158 197 -166q-4 -57 -51 -96h-385q-274 492 -353 604l-69 92l-99 -360q-16 -55 -15 -98q0 -40 13 -68q29 -59 123 -74l-18 -96h-662z" />
<glyph unicode="L" horiz-adv-x="1366" d="M12 0l27 96q139 31 203 266l186 699q15 59 15 104q0 118 -105 135l27 97h659l-27 -97q-102 -23 -148 -76t-87 -202l-211 -778q-5 -17 -5 -32q0 -42 38 -74q51 -42 164 -42q117 0 256 67.5t251 180.5h119q-88 -233 -162 -344h-1200z" />
<glyph unicode="M" horiz-adv-x="2004" d="M-47 0l20 96q121 39 220 269l288 677q36 84 37 142q0 98 -106 116l16 97h506q-6 -44 -7 -110q0 -40 3 -88q6 -128 22 -222l76 -483l309 452q174 256 256 451h498l-14 -97q-113 -23 -156 -106.5t-63 -259.5l-72 -606q-5 -36 -5 -66q0 -50 13 -84q20 -53 96 -82l-24 -96 h-606l14 96q94 25 130 83.5t54 207.5l86 674l-4 4q-70 -111 -229.5 -337t-296.5 -445q-104 -168 -160 -283h-127q5 30 5 73q0 115 -36 324q-90 526 -106 686h-4l-264 -669q-44 -96 -44 -166q0 -15 2 -28q11 -77 113 -124l-20 -96h-420z" />
<glyph unicode="N" horiz-adv-x="1665" d="M0 0l23 96q96 25 138 86.5t91 245.5l190 737q-53 82 -94 113q-32 24 -79 24q-12 0 -25 -2l26 97h439l587 -1049l168 629q18 82 22 151v11q0 63 -34 108q-37 49 -113 53l27 97h442l-26 -97q-90 -43 -136.5 -114.5t-82.5 -210.5l-201 -748l108 -227h-370l-584 1061 l-172 -678q-19 -72 -19 -125q0 -49 16 -82q34 -70 151 -80l-23 -96h-469z" />
<glyph unicode="O" horiz-adv-x="1748" d="M164 535q0 160 64.5 317.5t181 285.5t300 207.5t400.5 79.5q252 0 435.5 -156.5t183.5 -424.5q0 -217 -113 -415t-330 -328t-487 -130q-291 0 -463 171.5t-172 392.5zM532 444q0 -164 82 -265t217 -101q127 0 227.5 79t158 191.5t95.5 248.5t50 236.5t12 167.5 q0 147 -80 232.5t-217 85.5q-111 0 -206 -71.5t-155.5 -177t-103.5 -229.5t-61.5 -226.5t-18.5 -170.5z" />
<glyph unicode="P" horiz-adv-x="1386" d="M-8 0l26 96q102 41 147.5 99.5t84.5 201.5l178 668q16 53 16 94q0 36 -12 63q-27 58 -125 78l27 97h743q225 0 336 -92.5t111 -247.5q0 -201 -164 -325t-428 -124q-188 0 -189 37q0 23 12.5 52.5t26.5 29.5h72q88 0 152.5 35t98.5 91t49 114.5t15 117.5q0 215 -241 215 h-88l-258 -933q-18 -66 -19 -116q0 -147 158 -155l-14 -96h-715z" />
<glyph unicode="Q" horiz-adv-x="1748" d="M164 535q0 125 39 249.5t117.5 240.5t188 205t263.5 142t330 53q266 0 446.5 -157.5t180.5 -431.5q0 -197 -98.5 -381.5t-284 -314.5t-414.5 -154v-4q174 -74 339 -107t386 -45l-10 -37q-72 -84 -156 -134t-141 -50q-219 0 -455 108.5t-449 341.5q-282 179 -282 476z M535 438q0 -160 81.5 -259t214.5 -99q123 0 223.5 78t158 188.5t96.5 244.5t52 236.5t13 173.5q0 145 -80 231.5t-211 86.5q-133 0 -243.5 -98.5t-174 -242.5t-97 -286.5t-33.5 -253.5z" />
<glyph unicode="R" horiz-adv-x="1599" d="M-4 0l24 96q90 25 136.5 74t76.5 164l207 776q10 38 10 69q0 38 -15 67q-28 52 -105 54l24 97h836q123 0 215 -33t140 -87t69.5 -109.5t21.5 -112.5q0 -147 -128 -253t-314 -112l98 -315q76 -242 189 -279l-41 -96h-359q-37 86 -74.5 197.5t-80.5 255t-68 215.5h-190 l-107 -398q-10 -38 -10 -67q0 -32 12 -53q23 -41 113 -54l-25 -96h-655zM692 764h219q184 0 268.5 95t84.5 210q0 98 -68 164.5t-209 66.5h-149z" />
<glyph unicode="S" horiz-adv-x="1280" d="M2 141l72 297h149q2 -164 98.5 -262t251.5 -98q117 0 202 64.5t85 152.5q0 63 -52 133t-127 136l-150 136q-75 70 -127 159t-52 179q0 70 23.5 132.5t76 123t153 96t239.5 35.5q147 0 262 -30.5t250 -104.5l-60 -266h-131q-4 129 -84 212t-204 83q-86 0 -152 -47 t-66 -121q0 -59 53.5 -129t130.5 -140l153 -146q77 -75 130.5 -169t53.5 -188q0 -188 -145.5 -298t-452.5 -110q-336 0 -580 170z" />
<glyph unicode="T" horiz-adv-x="1492" d="M203 1061l108 336h1399l-76 -336h-116q-33 147 -82.5 193t-157.5 46h-115l-278 -995q-11 -38 -11 -70q0 -45 22 -78q38 -56 134 -61l-26 -96h-717l26 94q49 8 87 30.5t62.5 48.5t46 68t33 76.5t27.5 90.5l250 892h-82q-133 0 -226 -52t-181 -187h-127z" />
<glyph unicode="U" horiz-adv-x="1622" d="M243 283q-14 48 -14 104q0 66 19 141l139 516q17 62 17 109q0 132 -132 147l15 97h702l-16 -97q-117 -25 -170 -106.5t-98 -251.5l-115 -418q-21 -76 -21 -140q0 -92 43 -159q74 -113 250 -112q172 0 281.5 93t150.5 251l123 485q28 90 28 161q0 39 -8 73 q-24 94 -145 124l17 97h475l-17 -97q-102 -35 -150 -102.5t-87 -228.5l-121 -498q-37 -150 -109.5 -254t-166 -154.5t-179.5 -71t-180 -20.5q-121 0 -229.5 35t-190 104t-111.5 173z" />
<glyph unicode="V" horiz-adv-x="1472" d="M307 1300l15 97h622l-14 -97q-100 -16 -134 -77.5t-38 -178.5l-25 -768l8 -4l220 267q43 66 144 205l136 190q68 100 86.5 140t18.5 91q0 98 -95 135l17 97h444l-14 -97q-68 -18 -154 -121.5t-280 -373.5l-9 -12q-141 -197 -356 -465.5t-274 -356.5h-238l43 1110v16 q0 166 -123 203z" />
<glyph unicode="W" horiz-adv-x="1984" d="M231 1305l17 92h538l-14 -92q-104 -53 -102 -179l24 -819h4q281 436 394 651q-6 193 -28 255.5t-101 91.5l22 92h586l-23 -97q-82 -8 -109 -54q-24 -40 -24 -123v-25l33 -738h4l225 392q186 326 187 413q0 45 -26 83t-75 52l15 97h440l-14 -97q-88 -37 -139.5 -94 t-133.5 -202l-156 -274l-239 -421l-184 -338h-211l-41 801h-4q-68 -119 -153 -252l-193 -298l-164 -251h-203l-43 1063q0 133 -24 187.5t-85 83.5z" />
<glyph unicode="X" horiz-adv-x="1579" d="M-12 0l26 96q139 43 396 260l352 297l-191 371q-92 178 -134 225t-113 51l14 97h684l-14 -97q-139 -6 -139 -92q0 -36 24 -86l123 -250l211 179q97 83 97 153q0 66 -93 96l14 97h467l-14 -97q-96 -47 -266 -190l-375 -317l223 -437q86 -168 129 -211t94 -49l-35 -96h-624 l26 96q98 23 98 103q0 45 -32 108l-135 268l-312 -264q-62 -57 -62 -110q0 -10 2 -19q13 -61 91 -86l-14 -96h-518z" />
<glyph unicode="Y" horiz-adv-x="1386" d="M248 1300l14 97h590l-14 -97q-84 -27 -104 -75q-8 -20 -8 -45q0 -37 17 -86l140 -484l342 461q51 64 51 121q0 9 -1 17q-9 65 -97 91l14 97h428l-14 -97q-20 -2 -38 -10t-37.5 -26.5t-29.5 -29.5t-36 -45l-33 -44l-498 -615l-49 -188q-14 -53 -14 -95q0 -133 139 -151 l-19 -96h-702l16 96q164 18 225 246l45 166l-165 559q-37 129 -71 175t-91 58z" />
<glyph unicode="Z" horiz-adv-x="1404" d="M31 0v96l1022 1204h-152q-203 0 -298 -47t-167 -170h-129l111 314h1095v-84l-1034 -1217h90q274 0 411.5 56.5t244.5 207.5h123l-123 -360h-1194z" />
<glyph unicode="[" horiz-adv-x="788" d="M0 -365l539 1764h479l-17 -96h-51q-92 0 -136 -37t-71 -119l-393 -1294q-8 -25 -8 -45q0 -76 119 -76h37l-29 -97h-469z" />
<glyph unicode="\" horiz-adv-x="569" d="M72 1425h233l336 -1462h-233z" />
<glyph unicode="]" horiz-adv-x="788" d="M-180 -365l16 97h51q92 0 136.5 36.5t70.5 118.5l393 1295q8 25 8 44q0 76 -118 77h-37l29 96h469l-539 -1764h-479z" />
<glyph unicode="^" horiz-adv-x="1167" d="M233 598l377 799h221l367 -799h-285l-196 489l-197 -489h-287z" />
<glyph unicode="_" horiz-adv-x="1024" d="M-12 -154h1048v-102h-1048v102z" />
<glyph unicode="`" d="M250 1384h295l106 -344h-78z" />
<glyph unicode="a" horiz-adv-x="1216" d="M80 260q0 92 40 202.5t111.5 215t192.5 174.5t266 70q162 0 266 -115l50 84h143l-205 -653q-9 -28 -9 -51q0 -8 1 -15q4 -29 25 -29q39 0 106 105h98q-63 -125 -141 -193q-88 -82 -197 -82q-76 0 -116.5 55.5t-42.5 151.5q-168 -207 -351 -207q-104 0 -170.5 80 t-66.5 207zM369 330q0 -70 29.5 -114t74.5 -44q115 0 218.5 179t103.5 339q0 55 -31 90t-80 35q-92 0 -168 -91t-111.5 -199.5t-35.5 -194.5z" />
<glyph unicode="b" horiz-adv-x="1259" d="M137 401l225 742q13 38 13 63q0 22 -10 33q-23 23 -129 23l28 94q9 -1 20 -1q61 0 178 20q138 24 216 50h72l-213 -653l4 -4q166 154 342 154q145 0 233 -93.5t88 -248.5q0 -221 -188.5 -414t-472.5 -193q-231 0 -346 124q-77 84 -78 193q0 52 18 111zM397 313 q-16 -50 -15 -89q0 -52 28 -86q49 -58 149 -58q84 0 155.5 63.5t110.5 151.5t59.5 166t20.5 123q0 78 -40 126t-105 48q-98 0 -186.5 -81t-127.5 -206z" />
<glyph unicode="c" horiz-adv-x="1024" d="M68 326q0 109 44 214t122.5 191t203.5 138.5t274.5 52.5t222.5 -58.5t73 -132.5q0 -53 -35 -88t-88 -35q-111 0 -123 109q-6 59 -20.5 78.5t-61.5 19.5q-121 0 -221.5 -130t-100.5 -290q0 -111 64.5 -181.5t167.5 -70.5q57 0 119.5 28t105.5 71h143q-231 -268 -526 -269 q-168 0 -266 95.5t-98 257.5z" />
<glyph unicode="d" horiz-adv-x="1280" d="M88 279q0 246 196.5 444.5t438.5 198.5q113 0 203 -68l92 324q5 19 5 34q0 50 -58 50h-93l29 92q221 12 408 71h69l-368 -1210q-8 -27 -8 -43q0 -28 22 -29q51 0 129 103h107q-78 -131 -179.5 -202t-210.5 -71q-72 0 -116 52q-28 31 -28 73q0 27 11 58l-4 4 q-162 -186 -352 -187q-137 0 -215 81.5t-78 224.5zM371 340q0 -90 40 -139t105 -49q92 0 173 98t122 218t41 210q0 63 -41 101t-98 38q-74 0 -140.5 -54t-108.5 -132t-67.5 -157t-25.5 -134z" />
<glyph unicode="e" horiz-adv-x="1044" d="M57 289q0 238 218.5 435.5t482.5 197.5q109 0 177.5 -58.5t68.5 -150.5q0 -164 -178.5 -270.5t-469.5 -114.5q0 -84 55.5 -141.5t137.5 -57.5q72 0 157 35t130 88h137q-227 -279 -543 -279q-186 0 -279.5 88.5t-93.5 227.5zM360 428q203 18 321 93t118 188q0 43 -34 74.5 t-81 31.5q-125 0 -217.5 -123t-106.5 -264z" />
<glyph unicode="f" d="M-356 -250q0 47 36.5 82t86.5 35q37 0 64.5 -21.5t41.5 -47t33.5 -47t38.5 -21.5q31 0 56.5 51t59.5 182l222 817h-129l20 107h141q94 289 215 409q129 129 297 129q82 0 144.5 -48t62.5 -109q0 -47 -36.5 -82t-86.5 -35q-37 0 -62.5 24.5t-36.5 55.5t-26.5 55.5 t-33.5 24.5q-33 0 -47 -56l-99 -368h162l-14 -107h-179l-108 -391q-131 -475 -291 -635q-147 -147 -321 -147q-90 0 -150.5 40t-60.5 103z" />
<glyph unicode="g" horiz-adv-x="1216" d="M-123 -219q0 57 81 106.5t198 61.5v4q-92 47 -93 145q0 164 283 221v5q-168 78 -168 243q0 158 130 256.5t341 98.5q151 0 269 -68q129 68 212 68q41 0 57.5 -9.5t16.5 -33.5v-101q0 -31 -6 -41t-22 -10h-39q-12 0 -33 22.5t-55 40.5q-24 12 -53 11q-14 0 -29 -2 q104 -96 104 -224q0 -106 -65.5 -181t-152.5 -105.5t-181 -30.5q-41 0 -122 4t-114 4q-47 0 -82 -21.5t-35 -54t35 -46t125 -13.5h156q164 0 243.5 -64.5t79.5 -150.5q0 -92 -75 -168q-141 -141 -543 -141q-225 0 -344 49t-119 125zM100 -207q0 -47 75 -68.5t249 -21.5 q147 0 225 21.5t78 80.5q0 37 -33 56.5t-82 19.5h-241q-72 0 -144 15q-45 0 -86 -31t-41 -72zM453 518q0 -72 38.5 -118t100.5 -46q96 0 152.5 97.5t56.5 201.5q0 76 -40 120t-102 44q-70 0 -120 -55t-68 -120t-18 -124z" />
<glyph unicode="h" horiz-adv-x="1280" d="M33 0l354 1161q14 47 14 72q0 19 -8 24q-12 9 -64 10q-30 0 -73 -3l29 94q287 29 411 67h60l-295 -915l4 -4q266 416 543 416q76 0 119.5 -43t43.5 -115q0 -86 -55 -227l-143 -344q-12 -33 -5 -48.5t23 -15.5q51 0 148 141h100q-78 -137 -188.5 -217t-223.5 -80 q-68 0 -106.5 34t-38.5 91q0 66 47 181l168 407q12 28 12 46q0 40 -53 40q-90 0 -276.5 -255t-274.5 -517h-272z" />
<glyph unicode="i" d="M29 633q63 131 167.5 210t219.5 79q106 0 144 -85q16 -36 16 -80q0 -59 -29 -132l-146 -371q-18 -48 -17 -75q0 -35 30 -36q27 0 74 44t75 83h90q-182 -297 -415 -297q-98 0 -136 65q-17 30 -17 69q0 46 24 106l186 483q12 31 3 50.5t-30 19.5q-59 0 -143 -133h-96z M457 1271.5q0 63.5 45 108.5t108.5 45t108.5 -45t45 -108.5t-45 -108.5t-108.5 -45t-108.5 45t-45 108.5z" />
<glyph unicode="j" horiz-adv-x="661" d="M-305 -260q0 49 32.5 81t82.5 32q45 0 70.5 -21.5t31.5 -48.5t20.5 -48.5t40.5 -21.5q68 0 125 195l226 786q6 22 6 38q0 34 -31 34q-29 0 -70 -39t-63 -90h-98q63 143 168.5 214t212.5 71q86 0 135 -62q29 -36 28 -92q0 -40 -14 -90l-174 -619q-57 -199 -192.5 -325.5 t-340.5 -126.5q-94 0 -145 35t-51 98zM432 1271.5q0 63.5 45 108.5t108.5 45t108.5 -45t45 -108.5t-45 -108.5t-108.5 -45t-108.5 45t-45 108.5z" />
<glyph unicode="k" horiz-adv-x="1280" d="M23 0l372 1174q6 19 7 33q0 52 -78 53h-74l26 92q293 18 437 73h51l-232 -706l5 -4q186 207 440 207q113 0 178.5 -50.5t65.5 -134.5q0 -213 -326 -323l84 -178q23 -47 34 -61.5t31 -14.5q23 0 39.5 13t53.5 63h104q-156 -262 -317 -263q-76 0 -121 45t-94 154l-88 190 h-195l-113 -362h-290zM455 444h63q123 0 210 21.5t128 58.5t58.5 72t17.5 74q0 43 -31 69.5t-78 26.5q-29 0 -79 -16.5t-111.5 -50t-112.5 -101.5t-65 -154z" />
<glyph unicode="l" horiz-adv-x="618" d="M57 129q0 45 39 168l279 881q7 21 6 37q0 53 -72 53h-80l29 94q203 0 410 63h57l-383 -1212q-8 -26 -8 -43q0 -35 32.5 -35t72.5 37t69 90h90q-59 -121 -160.5 -205t-210.5 -84q-80 0 -125 42t-45 114z" />
<glyph unicode="m" horiz-adv-x="2048" d="M12 635q72 135 175.5 211t213.5 76q74 0 118 -36t44 -98q0 -96 -69 -276l4 -4q145 219 276 316.5t283 97.5q84 0 137 -48.5t53 -125.5q0 -84 -47 -240l4 -4q129 207 281.5 312.5t273.5 105.5q119 0 157 -94q17 -43 17 -89q0 -56 -24 -118l-144 -408q-11 -29 -10 -48 q0 -30 29 -30q59 0 147 141h103q-68 -133 -182.5 -218t-227.5 -85q-51 0 -89 31t-52 94q-4 19 -4 40q0 51 24 118l160 440q14 37 2 58.5t-43 21.5q-98 0 -286.5 -223t-303.5 -553h-274l190 618q14 41 14 74q0 16 -4 31q-10 43 -51 43q-125 0 -305 -240.5t-264 -525.5h-277 l205 668q11 36 11 58q0 40 -33 40q-64 0 -138 -131h-94z" />
<glyph unicode="n" horiz-adv-x="1300" d="M35 643q72 129 177 204t220 75q63 0 99 -34t36 -93q0 -96 -75 -293l4 -4q113 221 250 322.5t266 101.5q82 0 130 -47.5t48 -126.5q0 -55 -33 -150l-139 -369q-14 -37 -7 -61.5t33 -24.5q25 0 64 34t74 85h86q-70 -127 -179.5 -208t-211.5 -81q-94 0 -129 76 q-15 32 -15 76q0 59 27 137l158 424q8 20 8 39q0 14 -4 27q-10 31 -37 30q-106 0 -288.5 -271t-250.5 -511h-276l211 690q8 27 8 44q0 32 -27 32q-57 0 -127 -123h-100z" />
<glyph unicode="o" horiz-adv-x="1173" d="M74 375q0 205 160.5 376t431.5 171q199 0 321.5 -111t122.5 -287q0 -225 -167 -388t-421 -163q-203 0 -325.5 121t-122.5 281zM356 284.5q0 -94.5 48.5 -154.5t121.5 -60q84 0 147.5 67.5t94.5 164.5t45 180t14 141q0 94 -42 148t-117 54q-94 0 -170 -102t-109 -223 t-33 -215.5z" />
<glyph unicode="p" horiz-adv-x="1259" d="M-174 -385l31 96q106 2 149 32t64 105l235 836q-100 -43 -162 -127h-102q43 88 115.5 147.5t189.5 114.5l66 242l303 51l-64 -209q29 6 68 12.5t80 6.5q188 0 298.5 -97.5t110.5 -263.5q0 -61 -16 -128.5t-70.5 -152.5t-139.5 -152t-238.5 -112t-352.5 -45l-41 -135 q-8 -25 -8 -45q0 -32 20 -50q33 -30 117 -30h41l-31 -96h-663zM418 61q119 0 210 35t143 86t86 119t45 122t11 105q0 35 -8 73t-29.5 84t-71.5 76t-124 30q-10 0 -33.5 -2.5t-30.5 -2.5z" />
<glyph unicode="q" horiz-adv-x="1216" d="M68 289q0 94 49 202.5t133 206t214 161t275 63.5q178 0 289 -109l45 82h154l-336 -1032q-11 -35 -11 -62q0 -90 126 -90h22l-31 -96h-641l31 96h19q92 0 128.5 23.5t61.5 93.5l106 291l-4 4q-164 -150 -325 -150q-145 0 -225 94.5t-80 221.5zM363 307q0 -74 37.5 -119 t103.5 -45q74 0 162 72t122 186l72 238q10 32 10 60q0 40 -20 72q-35 54 -113 54q-84 0 -157.5 -58t-118.5 -143t-71.5 -170.5t-26.5 -146.5z" />
<glyph unicode="r" horiz-adv-x="980" d="M37 602q61 147 158.5 233.5t201.5 86.5q74 0 115 -47.5t41 -131.5q0 -55 -16 -133l-45 -209l4 -4q135 309 211.5 417t191.5 108q135 0 135 -146q0 -92 -33.5 -143t-95.5 -51q-80 0 -80 96q0 6 2 24.5t1 25.5t-8 15.5t-21 8.5q-49 0 -198.5 -312.5t-162.5 -439.5h-286 l139 586q16 66 16 106q0 60 -37 60q-66 0 -137 -150h-96z" />
<glyph unicode="s" horiz-adv-x="1003" d="M8 211q0 51 35 89t90 38q63 0 97 -42t45.5 -92t49 -92t105.5 -42q66 0 104.5 32.5t38.5 85.5q0 45 -38.5 86t-94 76t-110 73t-93 94t-38.5 124q0 129 108.5 205t290.5 76q160 0 266.5 -60.5t106.5 -150.5q0 -51 -35 -86t-86 -35q-59 0 -91 37t-42 81t-44 80.5t-93 36.5 q-61 0 -96 -26.5t-35 -65.5t40.5 -78t99 -75.5t118 -79.5t100.5 -104.5t41 -133.5q0 -133 -116 -211t-312 -78q-213 0 -312.5 74t-99.5 164z" />
<glyph unicode="t" horiz-adv-x="747" d="M125 246l154 528h-152l29 98q133 12 252.5 124t154.5 196h115l-94 -305h182l-33 -113h-182l-152 -565q-8 -29 5.5 -54.5t41.5 -25.5q72 0 170 131h113q-190 -287 -401 -287q-115 0 -177 72q-39 45 -40 113q0 40 14 88z" />
<glyph unicode="u" horiz-adv-x="1300" d="M29 631q55 131 158.5 211t220.5 80q143 0 143 -156q0 -70 -37 -174l-121 -344q-12 -33 -12 -59q0 -14 4 -26q10 -34 41 -34q90 0 208 160t197.5 335t102.5 275h280l-206 -678q-10 -36 -11 -58q0 -34 25 -34t72 49t84 113h84q-76 -150 -180.5 -234t-215.5 -84 q-88 0 -126 61q-21 33 -21 78q0 36 14 81l64 202l-4 4q-221 -426 -504 -426q-111 0 -157 89q-22 42 -22 100q0 63 27 145l137 379q11 29 11 47q0 33 -35 33q-29 0 -72 -45t-59 -90h-90z" />
<glyph unicode="v" horiz-adv-x="1173" d="M61 596q0 96 90.5 196.5t237.5 100.5h266q31 0 31 -12l-10 -19q-12 -18 -37 -66t-53 -112l-88 -197q-37 -80 -37 -165q0 -88 45 -140.5t121 -52.5q84 0 150.5 49t99 119t49 125t16.5 84q0 45 -53 125t-53 139q0 63 38.5 107.5t98.5 44.5q66 0 107.5 -55.5t41.5 -143.5 q0 -72 -18.5 -163t-64.5 -196.5t-111.5 -190.5t-171 -142.5t-230.5 -57.5q-160 0 -254 78t-94 191q0 55 24.5 108t45 81t96.5 109l107 115h-226q-61 0 -61 -24q0 -8 9 -29.5t9 -34.5q0 -23 -16.5 -38t-38.5 -15q-29 0 -47.5 22.5t-18.5 59.5z" />
<glyph unicode="w" horiz-adv-x="1748" d="M66 600q0 35 15 79t51 95t111.5 86t178.5 35h237q18 0 20.5 -7t-7.5 -30l-86 -176q-129 -266 -129 -365q0 -66 36.5 -106.5t96.5 -40.5q66 0 150.5 63.5t140.5 151.5q-10 143 -11 193q0 164 50.5 254t140.5 90q59 0 98 -44t39 -110q0 -125 -127 -299q45 -258 225 -258 q98 0 171 73.5t73 174.5q0 78 -72.5 174t-72.5 151q0 59 36.5 98.5t94.5 39.5q80 0 125 -68t45 -190q0 -152 -58.5 -307.5t-179.5 -269.5t-270 -114q-231 0 -277 265q-119 -135 -220 -200t-218 -65q-125 0 -210 80t-85 195q0 70 30 123t124 153l121 129h-242q-47 0 -47 -28 q0 -12 10 -29.5t10 -34.5q0 -47 -53 -47q-29 0 -47 23.5t-18 62.5z" />
<glyph unicode="x" horiz-adv-x="1259" d="M16 127q0 63 30 98t83 35q45 0 67.5 -24.5t39 -49t45.5 -24.5q63 0 135 82l108 123l-157 299q-39 74 -74 73q-61 0 -113 -102h-90q61 141 146.5 213t179.5 72q92 0 139 -53.5t141 -233.5q10 -16 15 -27q123 170 210 242t173 72q68 0 105.5 -39t37.5 -109 q0 -129 -107 -129q-51 0 -81.5 42t-55.5 42q-47 0 -98 -49t-137 -164l112 -215q8 -14 24.5 -49t26 -52.5t26 -33.5t34.5 -16q55 0 121 106h92q-63 -131 -154.5 -207t-185.5 -76q-121 0 -180 111l-107 197l-92 -121q-139 -186 -301 -187q-76 0 -117 40t-41 114z" />
<glyph unicode="y" horiz-adv-x="1130" d="M-199 -256q0 57 43 97t103 40q45 0 115.5 -43t121.5 -43q94 0 244 160l-172 696q-20 82 -31 86q-4 2 -10 2q-49 0 -94 -133h-96q59 166 133.5 241t177.5 75q82 0 119 -42t61 -141l141 -557q172 178 172 322q0 37 -17 131t-17 133q0 70 38.5 112t102.5 42q70 0 114 -49.5 t44 -127.5q0 -129 -117 -307q-156 -240 -356 -442q-174 -174 -316 -272q-166 -117 -317 -117q-84 0 -135.5 37t-51.5 100z" />
<glyph unicode="z" horiz-adv-x="1024" d="M12 10q0 115 138 252q84 84 301 210t268 165l-4 4q-21 -3 -45 -3q-75 0 -184 29q-144 38 -191 38q-63 0 -64 -41q0 -8 22.5 -27t22.5 -45.5t-19 -44t-48 -17.5q-39 0 -62.5 26t-23.5 67q0 33 18.5 79t55 98t107.5 87t161 35q72 0 197.5 -40t168.5 -40q33 0 48.5 12 t17.5 26.5t7 27t20 12.5h51q25 0 24 -23q0 -121 -116 -238q-78 -78 -179.5 -144t-229.5 -138t-200 -119l5 -4q21 2 44 2q83 0 198 -28q148 -36 173 -35q88 0 88 43q0 14 -21.5 35.5t-21.5 43.5q0 27 23.5 44.5t52.5 17.5q35 0 56.5 -22.5t21.5 -57.5q0 -104 -94 -214 t-248 -110q-68 0 -217.5 42t-175.5 42q-25 0 -35 -13t-9 -28.5t-5.5 -29t-22.5 -13.5h-45q-29 0 -29 37z" />
<glyph unicode="{" horiz-adv-x="712" d="M238 487v58q92 8 141 70.5t49 148.5q0 51 -23.5 165.5t-23.5 157.5q0 129 110.5 227.5t301.5 98.5v-39q-84 -8 -139.5 -65.5t-55.5 -124.5q0 -57 24.5 -160.5t24.5 -177.5q0 -109 -84 -202t-244 -126v-4q160 -33 244 -126t84 -202q0 -74 -24.5 -177t-24.5 -161 q0 -68 55.5 -125t139.5 -65v-39q-190 0 -301 98.5t-111 227.5q0 43 23.5 157.5t23.5 165.5q0 86 -49 148.5t-141 70.5z" />
<glyph unicode="|" horiz-adv-x="1204" d="M569 -512v2048h217v-2048h-217z" />
<glyph unicode="}" horiz-adv-x="712" d="M104 -342q84 8 139.5 65.5t55.5 124.5q0 57 -24.5 161t-24.5 177q0 109 84 202t244 126v4q-160 33 -244 126t-84 202q0 74 24.5 177t24.5 161q0 68 -55.5 125t-139.5 65v39q190 0 301 -98t111 -228q0 -43 -23.5 -157.5t-23.5 -165.5q0 -86 49 -148.5t141 -70.5v-58 q-92 -8 -141 -70.5t-49 -148.5q0 -51 23.5 -165.5t23.5 -157.5q0 -129 -110.5 -227.5t-301.5 -98.5v39z" />
<glyph unicode="~" horiz-adv-x="1167" d="M221 500q14 168 91 260t204 92q84 0 239.5 -71.5t237.5 -71.5q123 0 154 143h63q-4 -152 -80.5 -252t-195.5 -100q-92 0 -260 69.5t-228 69.5q-127 0 -159 -139h-66z" />
<glyph unicode="&#xa1;" horiz-adv-x="747" d="M-6 -345q-13 21 -13 47q0 33 21 73l375 805h78l-156 -859q-12 -70 -56 -92t-126 -22q-94 0 -123 48zM350 888.5q0 69.5 50.5 120t120 50.5t118.5 -49t49 -121q0 -70 -49 -119t-119 -49q-72 0 -121 49t-49 118.5z" />
<glyph unicode="&#xa2;" horiz-adv-x="1110" d="M111 328q0 227 191 418q176 176 434 177q22 0 44 -1l240 475h106l-243 -490q168 -53 168 -176q0 -55 -36 -89t-93 -34q-117 0 -119 127h-4l-285 -563q52 -27 106 -27q16 0 32 2q71 10 121 35t85 60h141q-229 -267 -525 -267q-29 0 -58 2l-144 -284h-106l153 307 q-94 35 -151 125t-57 203zM401 387q0 -88 39 -145l287 573q-127 0 -226.5 -131t-99.5 -297z" />
<glyph unicode="&#xa3;" horiz-adv-x="1386" d="M98 -242q0 111 96.5 191t186.5 86q47 154 61 278h-258l39 140h242l55 209q90 344 264 518q186 186 428 186q119 0 194 -50t75 -128q0 -51 -34 -87t-83 -36q-47 0 -69.5 31.5t-27.5 70.5t-30 71t-76 32q-82 0 -147 -66q-94 -94 -189 -456l-77 -295h282l-39 -140h-297 q-53 -145 -155 -303q68 -10 207 -118.5t221 -108.5q41 0 67.5 21.5t26.5 54.5q0 31 -36 70.5t-36 78.5q0 45 33 78t76 33q45 0 76.5 -37t31.5 -90q0 -49 -24.5 -106.5t-69.5 -113t-123 -92t-172 -36.5q-109 0 -188.5 43t-186.5 161q-154 -207 -264 -206q-35 0 -57.5 32.5 t-22.5 83.5z" />
<glyph unicode="&#xa4;" horiz-adv-x="1366" d="M188 295l131 129q-72 117 -71 254q0 129 71 250l-131 131l140 143l135 -133q121 74 250 74q127 0 254 -74l131 133l141 -143l-131 -131q74 -125 74 -250q0 -133 -74 -254l131 -129l-141 -141l-131 129q-119 -74 -256 -74q-129 0 -250 74l-129 -129zM449 675.5 q0 -110.5 76.5 -188t189.5 -77.5q111 0 188.5 77.5t77.5 188t-78 188.5t-188 78q-113 0 -189.5 -78t-76.5 -188.5z" />
<glyph unicode="&#xa5;" horiz-adv-x="1241" d="M6 420l14 112h437l-111 367h-301l16 113h252l-53 159q-20 66 -57 91.5t-99 37.5l15 97h590l-15 -97q-111 -29 -110 -112q0 -63 41 -176h411q96 133 97 180q0 76 -99 108l15 97h428l-15 -97q-35 -4 -59.5 -24.5t-71.5 -75.5l-151 -188h252l-15 -113h-327l-297 -367h499 l-14 -112h-514q-37 -119 -37 -172q0 -72 33 -108t106 -44l-18 -96h-703l17 96q188 18 256 248l22 76h-434zM657 899l82 -289l213 289h-295z" />
<glyph unicode="&#xa6;" horiz-adv-x="1204" d="M569 358h217v-716h-217v716zM569 666v716h217v-716h-217z" />
<glyph unicode="&#xa7;" horiz-adv-x="1216" d="M-53 -266q0 55 43 99t96 44q57 0 146.5 -69.5t142.5 -69.5q76 0 129 64.5t53 154.5q0 80 -42 175t-91 174t-91 197t-42 236q0 164 62.5 298t167 217t230.5 127t261 44q248 0 248 -147q0 -49 -39 -86t-91 -37q-49 0 -145 70.5t-154 70.5q-78 0 -127 -62.5t-49 -162.5 q0 -72 42 -172t91.5 -186t91.5 -206t42 -224q0 -131 -45.5 -244t-120 -190.5t-171 -134t-199.5 -82t-206 -25.5q-233 0 -233 127zM418 809q0 -104 39 -214t86 -188.5t86 -182t39 -195.5q0 -102 -56 -209l4 -4q176 166 177 407q0 115 -63 258l-125 279q-62 135 -62 233 q0 109 59 219l-4 5q-82 -61 -131 -171t-49 -237z" />
<glyph unicode="&#xa8;" d="M221 1192q0 59 43 102t102.5 43t102.5 -43t43 -102t-43 -102t-102.5 -43t-102.5 43t-43 102zM588 1192q0 59 43 102t102.5 43t102.5 -43t43 -102t-43 -102t-102.5 -43t-102.5 43t-43 102z" />
<glyph unicode="&#xa9;" horiz-adv-x="1529" d="M57 688q0 293 208 501t501 208t501 -208t208 -501t-208 -500.5t-501 -207.5t-501 207.5t-208 500.5zM154 688q0 -254 179 -433t433 -179t433 179t179 433t-179 433t-433 179t-433 -179t-179 -433zM334 678q0 190 124 315t314 125q76 0 154 -26.5t90 -26.5q39 0 47 51h39 v-268h-39q-20 102 -86 160.5t-162 58.5q-121 0 -189.5 -96.5t-68.5 -276.5q0 -182 71.5 -273t184.5 -91q147 0 260 139v-72q-123 -127 -319 -127q-186 0 -303 114t-117 294z" />
<glyph unicode="&#xaa;" horiz-adv-x="788" d="M186 973q0 143 118 268t276 125q109 0 178 -68l30 54h95l-133 -391q-7 -21 -8 -34q0 -20 18 -20q29 0 67 58h66q-35 -72 -96.5 -118t-122.5 -46q-100 0 -103 123q-111 -123 -229 -123q-70 0 -113 48t-43 124zM375 1016q0 -43 18.5 -69.5t48.5 -26.5q72 0 140.5 103 t68.5 212q0 35 -20.5 55.5t-55.5 20.5q-78 0 -139 -101.5t-61 -193.5z" />
<glyph unicode="&#xab;" horiz-adv-x="1067" d="M147 539q106 123 203 268l103 154h227q-49 -92 -168 -248q-86 -113 -141 -174l2 -13l35 -137q35 -150 57 -317h-199l-4 12l-24 127q-37 154 -66 254zM575 539l211 270q104 139 111 152h223q-29 -53 -86 -138q-78 -113 -170 -223q-45 -55 -80 -90q12 -59 25 -141 q27 -154 39 -283v-14h-197l-2 12l-16 127q-2 16 -41 254z" />
<glyph unicode="&#xac;" horiz-adv-x="1366" d="M201 815v205h1112v-686h-205v481h-907z" />
<glyph unicode="&#xad;" horiz-adv-x="937" d="M82 324l78 251h692l-78 -251h-692z" />
<glyph unicode="&#xae;" horiz-adv-x="1529" d="M57 688q0 293 208 501t501 208t501 -208t208 -501t-208 -500.5t-501 -207.5t-501 207.5t-208 500.5zM154 688q0 -254 179 -433t433 -179t433 179t179 433t-179 433t-433 179t-433 -179t-179 -433zM371 291v33q4 0 8 -1q55 0 75 27q22 29 21 111v471q0 80 -16.5 104.5 t-71.5 28.5v35h428q137 0 213 -62.5t76 -156.5q0 -156 -178 -207l135 -250q47 -88 106 -100v-33h-241l-207 368h-45v-198q0 -84 21.5 -109.5t99.5 -27.5v-33h-424zM674 711h51q76 0 120 47t44 127q0 172 -178 172h-37v-346z" />
<glyph unicode="&#xaf;" d="M178 1092l49 161h695l-50 -161h-694z" />
<glyph unicode="&#xb0;" horiz-adv-x="819" d="M186 1050.5q0 143.5 101.5 245t245 101.5t245 -101.5t101.5 -245t-101.5 -244.5t-245 -101t-245 101t-101.5 244.5zM317 1051q0 -88 62.5 -151.5t153 -63.5t153 63.5t62.5 151.5t-62.5 151.5t-153 63.5t-153 -63.5t-62.5 -151.5z" />
<glyph unicode="&#xb1;" horiz-adv-x="1368" d="M201 0v205h1110v-205h-1110zM201 788v205h452v432h205v-432h453v-205h-453v-432h-205v432h-452z" />
<glyph unicode="&#xb2;" d="M76 655l10 45q76 68 220.5 174.5t172.5 135.5q90 90 90 166q0 45 -31.5 69.5t-88.5 24.5q-90 0 -195 -74l-45 41q145 129 321 129q106 0 175 -48t69 -124q0 -74 -59 -133q-43 -43 -111 -86l-159 -96q-91 -53 -144 -88v-5h215q72 0 88.5 7.5t24.5 44.5h78l-39 -183h-592z " />
<glyph unicode="&#xb3;" d="M80 696q0 33 15.5 52.5t41.5 19.5q16 0 82 -33t111 -33q76 0 126 54.5t50 132.5q0 106 -143 106q-19 0 -41 -2l26 64q28 -3 54 -4q86 0 141 38q72 48 71 99q0 35 -28.5 57.5t-75.5 22.5q-74 0 -168 -70l-20 66q111 100 262 100q90 0 144 -36t54 -97q0 -53 -36.5 -94 t-122.5 -82q88 -68 88 -148q0 -104 -122 -185t-282 -81q-227 0 -227 53z" />
<glyph unicode="&#xb4;" d="M440 1040l107 344h295l-324 -344h-78z" />
<glyph unicode="&#xb5;" horiz-adv-x="1179" d="M-84 -336q0 63 87 206.5t120 254.5l223 770h250l-168 -571q-27 -94 -27 -134q0 -31 22.5 -51t53.5 -20q66 0 141.5 94t120.5 240l138 442h249l-204 -702q-8 -25 -8 -47q0 -17 5 -32q11 -34 44 -34q51 0 116 145l35 -20q-80 -231 -264 -232q-88 0 -137 64q-32 41 -32 106 q0 35 9 78l-4 4q-88 -131 -166 -191.5t-176 -60.5q-55 0 -89 19.5t-62 66.5q-47 -137 -50 -270q-6 -231 -131 -231q-41 0 -68.5 30.5t-27.5 75.5z" />
<glyph unicode="&#xb6;" horiz-adv-x="1105" d="M121 936q0 90 26.5 169t83 146.5t161 106.5t247.5 39h590v-43h-43q-74 0 -110 -33t-36 -111v-1603h-98v1714h-182v-1714h-101v862q-254 0 -396 128t-142 339z" />
<glyph unicode="&#xb7;" horiz-adv-x="704" d="M242 672q0 70 49 119t119 49q72 0 121 -49.5t49 -119t-50.5 -119.5t-120 -50t-118.5 49t-49 121z" />
<glyph unicode="&#xb8;" d="M-72 -385l11 35q106 -16 153 -17q82 0 134.5 33t52.5 82q0 47 -46 76q-26 17 -66 17q-29 0 -65 -9l-18 33l223 135h103l-93 -55v-4q102 -4 158.5 -53.5t56.5 -114.5q0 -88 -93 -139.5t-257 -51.5q-148 0 -254 33z" />
<glyph unicode="&#xb9;" d="M156 655l16 60q102 0 135 106l125 396h-141l16 57q166 6 252 92h115l-172 -555q-5 -17 -5 -30q0 -22 12 -36q19 -23 83 -30l-17 -60h-419z" />
<glyph unicode="&#xba;" horiz-adv-x="768" d="M186 1040q0 135 113 230.5t272 95.5q127 0 208 -65.5t81 -170.5q0 -137 -111.5 -233t-271.5 -96q-123 0 -207 69.5t-84 169.5zM367 985q0 -59 32.5 -95t85.5 -36q61 0 108.5 69.5t66 143.5t18.5 121q0 55 -28.5 87t-80.5 32q-90 0 -146 -114t-56 -208z" />
<glyph unicode="&#xbb;" horiz-adv-x="1067" d="M-12 66q33 57 84 135q53 78 170 223q47 59 82 92q-10 45 -27 139q-29 184 -37 285l-2 14h199l2 -14q18 -154 41 -289q16 -109 32 -166l-14 -18l-72 -88l-124 -164q-66 -84 -101 -137l-10 -12h-223zM426 66q53 96 168 247q90 115 143 172l-4 15q-35 137 -63 284 q-23 125 -27 170h199l2 -12l26 -127q27 -125 66 -254q10 -41 22 -76q-109 -131 -202 -266l-94 -143l-7 -10h-229z" />
<glyph unicode="&#xbc;" horiz-adv-x="1898" d="M158 655l16 60q102 0 135 106l125 396h-141l16 57q166 6 252 92h115l-172 -555q-5 -17 -5 -30q0 -22 12 -36q19 -23 83 -30l-16 -60h-420zM315 -37l1194 1434h150l-1194 -1434h-150zM1075 203l6 96l463 410h178l-129 -410h125l-26 -96h-123l-70 -215h-194l71 215h-301z M1184 299h219l80 258l-4 4z" />
<glyph unicode="&#xbd;" horiz-adv-x="1898" d="M158 655l16 60q102 0 135 106l125 396h-141l16 57q166 6 252 92h115l-172 -555q-5 -17 -5 -30q0 -22 12 -36q19 -23 83 -30l-16 -60h-420zM315 -37l1194 1434h150l-1194 -1434h-150zM1092 0l10 45q76 68 220 174.5t173 134.5q90 90 90 166q0 45 -31.5 69.5t-89.5 24.5 q-90 0 -194 -73l-45 41q145 129 321 129q106 0 175 -48.5t69 -123.5q0 -74 -59 -133q-43 -43 -111 -87l-159 -96q-91 -53 -144 -88v-4h215q72 0 88 7t25 44h77l-39 -182h-591z" />
<glyph unicode="&#xbe;" horiz-adv-x="1898" d="M55 696q0 33 15.5 52.5t42.5 19.5q16 0 81.5 -33t110.5 -33q76 0 126 53.5t50 133.5q0 108 -130 108q-25 0 -54 -4l27 64q28 -3 53 -4q86 0 141 38q72 48 72 99q0 35 -29 57.5t-76 22.5q-74 0 -168 -70l-20 66q111 100 262 100q90 0 144.5 -36t54.5 -97q0 -53 -37 -94 t-123 -82q88 -66 88 -148q0 -106 -121 -186t-282 -80q-228 0 -228 53zM315 -37l1194 1434h150l-1194 -1434h-150zM1075 203l6 96l463 410h178l-129 -410h125l-26 -96h-123l-70 -215h-194l71 215h-301zM1184 299h219l80 258l-4 4z" />
<glyph unicode="&#xbf;" horiz-adv-x="1044" d="M119 55q0 90 37 184.5t96 153.5q115 115 305 123q90 2 119 18.5t47 69.5h115l-80 -305q-16 -66 -32.5 -85t-55.5 -19q-14 0 -68.5 6t-95.5 6q-119 0 -197 -56.5t-78 -142.5q0 -61 41 -105t121 -44q55 0 106.5 9t75.5 9q59 0 100.5 -36t41.5 -87q0 -66 -56.5 -106.5 t-146.5 -40.5q-164 0 -279.5 131t-115.5 317zM657 888.5q0 69.5 50.5 120t120 50.5t118.5 -49t49 -121q0 -70 -49 -119t-119 -49q-72 0 -121 49t-49 118.5z" />
<glyph unicode="&#xc0;" horiz-adv-x="1449" d="M-111 0l27 96q70 35 117 81t147 175l138 182l123 159l91 117q51 65 95 114l430 501h291l-123 -1163q-2 -17 -2 -32q0 -53 22 -82q29 -36 103 -52l-27 -96h-637l16 96q109 14 148 68.5t53 206.5l10 106h-501l-93 -143q-42 -67 -42 -119q0 -16 5 -31q17 -61 101 -88 l-12 -96h-480zM500 594h422l59 582l-4 4q-332 -389 -477 -586zM1010 1882h295l106 -344h-78z" />
<glyph unicode="&#xc1;" horiz-adv-x="1449" d="M-111 0l27 96q70 35 117 81t147 175l138 182l123 159l91 117q51 65 95 114l430 501h291l-123 -1163q-2 -17 -2 -32q0 -53 22 -82q29 -36 103 -52l-27 -96h-637l16 96q109 14 148 68.5t53 206.5l10 106h-501l-93 -143q-42 -67 -42 -119q0 -16 5 -31q17 -61 101 -88 l-12 -96h-480zM500 594h422l59 582l-4 4q-332 -389 -477 -586zM1139 1538l106 344h295l-323 -344h-78z" />
<glyph unicode="&#xc2;" horiz-adv-x="1449" d="M-111 0l27 96q70 35 117 81t147 175l138 182l123 159l91 117q51 65 95 114l430 501h291l-123 -1163q-2 -17 -2 -32q0 -53 22 -82q29 -36 103 -52l-27 -96h-637l16 96q109 14 148 68.5t53 206.5l10 106h-501l-93 -143q-42 -67 -42 -119q0 -16 5 -31q17 -61 101 -88 l-12 -96h-480zM500 594h422l59 582l-4 4q-332 -389 -477 -586zM883 1544l307 340h225l103 -340h-103l-133 203l-293 -203h-106z" />
<glyph unicode="&#xc3;" horiz-adv-x="1449" d="M-111 0l27 96q70 35 117 81t147 175l138 182l123 159l91 117q51 65 95 114l430 501h291l-123 -1163q-2 -17 -2 -32q0 -53 22 -82q29 -36 103 -52l-27 -96h-637l16 96q109 14 148 68.5t53 206.5l10 106h-501l-93 -143q-42 -67 -42 -119q0 -16 5 -31q17 -61 101 -88 l-12 -96h-480zM500 594h422l59 582l-4 4q-332 -389 -477 -586zM930 1577q0 123 61 201q57 76 139 75q68 0 169.5 -45t123.5 -45q63 0 78 90h62q2 -121 -53.5 -198.5t-139.5 -77.5q-61 0 -164.5 46t-132.5 46q-63 0 -78 -92h-65z" />
<glyph unicode="&#xc4;" horiz-adv-x="1449" d="M-111 0l27 96q70 35 117 81t147 175l138 182l123 159l91 117q51 65 95 114l430 501h291l-123 -1163q-2 -17 -2 -32q0 -53 22 -82q29 -36 103 -52l-27 -96h-637l16 96q109 14 148 68.5t53 206.5l10 106h-501l-93 -143q-42 -67 -42 -119q0 -16 5 -31q17 -61 101 -88 l-12 -96h-480zM500 594h422l59 582l-4 4q-332 -389 -477 -586zM920 1689.5q0 59.5 43 102.5t102 43t102 -43t43 -102.5t-43 -102.5t-102 -43t-102 43t-43 102.5zM1286 1689.5q0 59.5 43 102.5t102.5 43t102.5 -43t43 -102.5t-43 -102.5t-102.5 -43t-102.5 43t-43 102.5z" />
<glyph unicode="&#xc5;" horiz-adv-x="1449" d="M-111 0l27 96q70 35 117 81t147 175l138 182l123 159l91 117q51 65 95 114l430 501h291l-123 -1163q-2 -17 -2 -32q0 -53 22 -82q29 -36 103 -52l-27 -96h-637l16 96q109 14 148 68.5t53 206.5l10 106h-501l-93 -143q-42 -67 -42 -119q0 -16 5 -31q17 -61 101 -88 l-12 -96h-480zM500 594h422l59 582l-4 4q-332 -389 -477 -586zM1044 1716q0 86 60.5 146.5t146.5 60.5t147.5 -60.5t61.5 -146.5t-61.5 -147.5t-147.5 -61.5t-146.5 61.5t-60.5 147.5zM1118 1716.5q0 -55.5 39 -95.5t94.5 -40t95 40t39.5 95.5t-39.5 94t-95 38.5 t-94.5 -38.5t-39 -94z" />
<glyph unicode="&#xc6;" horiz-adv-x="1961" d="M-123 0l25 96q96 35 155.5 85t137.5 159l510 721q78 111 77 163q0 6 -1 11q-9 51 -119 65l22 97h1368l-67 -320h-103q-39 123 -92 173t-164 50h-221l-143 -516h104q115 0 190.5 39t124.5 133h109l-125 -469h-104q-12 111 -55.5 156t-139.5 45h-127l-98 -358 q-14 -50 -14 -89q0 -49 21 -83q38 -61 148 -62q115 0 246 68.5t244 197.5h123l-140 -362h-1208l23 96q94 14 138 66.5t83 197.5l90 328h-348l-164 -256q-102 -164 -102 -225q0 -88 106 -111l-25 -96h-485zM618 784h300l124 455q2 10 3 19q0 13 -6 24q-9 18 -29 18 q-39 0 -88 -73z" />
<glyph unicode="&#xc7;" horiz-adv-x="1536" d="M168 532q0 170 73.5 332t198.5 286t305.5 199.5t380.5 75.5q301 0 541 -157l-82 -307h-119q0 174 -85 271t-234 97q-154 0 -276.5 -83t-193.5 -211t-108 -267t-37 -268q0 -190 93.5 -306t246.5 -116q283 0 457 385h154l-82 -338q-313 -154 -608 -154l-45 -26v-4 q102 -4 158.5 -53.5t56.5 -114.5q0 -88 -93.5 -139.5t-257.5 -51.5q-147 0 -254 33l11 35q106 -16 153 -17q82 0 134.5 33t52.5 82q0 47 -45 76q-26 17 -67 17q-29 0 -65 -9l-18 33l186 110v5q-242 25 -387 182t-145 370z" />
<glyph unicode="&#xc8;" horiz-adv-x="1515" d="M6 0l17 96q96 23 142 89.5t87 211.5l166 625q22 75 22 130q0 31 -7 56q-19 70 -114 92l15 97h1265l-65 -322h-115q-35 125 -82 175t-129 50h-370l-140 -518h185q143 0 215.5 35t128.5 129h112l-122 -463h-101q-23 121 -62.5 162t-131.5 41h-250l-105 -381 q-10 -36 -10 -66q0 -55 35 -89q53 -53 170 -54q158 0 317.5 68.5t239.5 197.5h129l-137 -362h-1305zM850 1882h295l106 -344h-77z" />
<glyph unicode="&#xc9;" horiz-adv-x="1515" d="M6 0l17 96q96 23 142 89.5t87 211.5l166 625q22 75 22 130q0 31 -7 56q-19 70 -114 92l15 97h1265l-65 -322h-115q-35 125 -82 175t-129 50h-370l-140 -518h185q143 0 215.5 35t128.5 129h112l-122 -463h-101q-23 121 -62.5 162t-131.5 41h-250l-105 -381 q-10 -36 -10 -66q0 -55 35 -89q53 -53 170 -54q158 0 317.5 68.5t239.5 197.5h129l-137 -362h-1305zM979 1538l106 344h295l-323 -344h-78z" />
<glyph unicode="&#xca;" horiz-adv-x="1515" d="M6 0l17 96q96 23 142 89.5t87 211.5l166 625q22 75 22 130q0 31 -7 56q-19 70 -114 92l15 97h1265l-65 -322h-115q-35 125 -82 175t-129 50h-370l-140 -518h185q143 0 215.5 35t128.5 129h112l-122 -463h-101q-23 121 -62.5 162t-131.5 41h-250l-105 -381 q-10 -36 -10 -66q0 -55 35 -89q53 -53 170 -54q158 0 317.5 68.5t239.5 197.5h129l-137 -362h-1305zM723 1544l307 340h225l103 -340h-103l-133 203l-293 -203h-106z" />
<glyph unicode="&#xcb;" horiz-adv-x="1515" d="M6 0l17 96q96 23 142 89.5t87 211.5l166 625q22 75 22 130q0 31 -7 56q-19 70 -114 92l15 97h1265l-65 -322h-115q-35 125 -82 175t-129 50h-370l-140 -518h185q143 0 215.5 35t128.5 129h112l-122 -463h-101q-23 121 -62.5 162t-131.5 41h-250l-105 -381 q-10 -36 -10 -66q0 -55 35 -89q53 -53 170 -54q158 0 317.5 68.5t239.5 197.5h129l-137 -362h-1305zM760 1689.5q0 59.5 43 102.5t102.5 43t102.5 -43t43 -102.5t-43 -102.5t-102.5 -43t-102.5 43t-43 102.5zM1126 1689.5q0 59.5 43 102.5t102.5 43t102.5 -43t43 -102.5 t-43 -102.5t-102.5 -43t-102.5 43t-43 102.5z" />
<glyph unicode="&#xcc;" horiz-adv-x="854" d="M0 0l27 96q80 14 129 69.5t84 182.5l194 729q15 47 16 90q0 31 -9 60q-19 68 -93 73l27 97h626l-26 -97q-84 -23 -132 -92t-81 -190l-193 -721q-8 -31 -8 -58q0 -41 19 -73q31 -53 116 -70l-26 -96h-670zM518 1882h295l107 -344h-78z" />
<glyph unicode="&#xcd;" horiz-adv-x="854" d="M0 0l27 96q80 14 129 69.5t84 182.5l194 729q15 47 16 90q0 31 -9 60q-19 68 -93 73l27 97h626l-26 -97q-84 -23 -132 -92t-81 -190l-193 -721q-8 -31 -8 -58q0 -41 19 -73q31 -53 116 -70l-26 -96h-670zM647 1538l107 344h295l-324 -344h-78z" />
<glyph unicode="&#xce;" horiz-adv-x="854" d="M0 0l27 96q80 14 129 69.5t84 182.5l194 729q15 47 16 90q0 31 -9 60q-19 68 -93 73l27 97h626l-26 -97q-84 -23 -132 -92t-81 -190l-193 -721q-8 -31 -8 -58q0 -41 19 -73q31 -53 116 -70l-26 -96h-670zM391 1544l307 340h226l102 -340h-102l-133 203l-293 -203h-107z " />
<glyph unicode="&#xcf;" horiz-adv-x="854" d="M0 0l27 96q80 14 129 69.5t84 182.5l194 729q15 47 16 90q0 31 -9 60q-19 68 -93 73l27 97h626l-26 -97q-84 -23 -132 -92t-81 -190l-193 -721q-8 -31 -8 -58q0 -41 19 -73q31 -53 116 -70l-26 -96h-670zM428 1689.5q0 59.5 43 102.5t102.5 43t102.5 -43t43 -102.5 t-43 -102.5t-102.5 -43t-102.5 43t-43 102.5zM795 1689.5q0 59.5 43 102.5t102 43t102 -43t43 -102.5t-43 -102.5t-102 -43t-102 43t-43 102.5z" />
<glyph unicode="&#xd0;" horiz-adv-x="1642" d="M33 0l24 96q104 51 144.5 104.5t79.5 196.5l75 279h-166l29 115h166l70 262q15 58 15 102q0 132 -136 145l24 97h652q135 0 242.5 -39t174 -101.5t110.5 -147.5t61.5 -170t17.5 -177q0 -98 -25.5 -199.5t-83 -203t-140.5 -181.5t-210 -129t-278 -49h-846zM600 322 q-11 -38 -11 -71q0 -52 28 -87q46 -57 149 -58q162 0 278.5 120t167 285t50.5 341q0 197 -82 317.5t-248 120.5h-62l-139 -499h275l-31 -115h-277z" />
<glyph unicode="&#xd1;" horiz-adv-x="1665" d="M0 0l23 96q96 25 138 86.5t91 245.5l190 737q-53 82 -94 113q-32 24 -79 24q-12 0 -25 -2l26 97h439l587 -1049l168 629q18 82 22 151v11q0 63 -34 108q-37 49 -113 53l27 97h442l-26 -97q-90 -43 -136.5 -114.5t-82.5 -210.5l-201 -748l108 -227h-370l-584 1061 l-172 -678q-19 -72 -19 -125q0 -49 16 -82q34 -70 151 -80l-23 -96h-469zM844 1577q0 123 61 201q57 76 139 75q68 0 169.5 -45t123.5 -45q63 0 78 90h62q2 -121 -53.5 -198.5t-139.5 -77.5q-61 0 -164.5 46t-132.5 46q-63 0 -78 -92h-65z" />
<glyph unicode="&#xd2;" horiz-adv-x="1748" d="M164 535q0 160 64.5 317.5t181 285.5t300 207.5t400.5 79.5q252 0 435.5 -156.5t183.5 -424.5q0 -217 -113 -415t-330 -328t-487 -130q-291 0 -463 171.5t-172 392.5zM532 444q0 -164 82 -265t217 -101q127 0 227.5 79t158 191.5t95.5 248.5t50 236.5t12 167.5 q0 147 -80 232.5t-217 85.5q-111 0 -206 -71.5t-155.5 -177t-103.5 -229.5t-61.5 -226.5t-18.5 -170.5zM967 1882h295l106 -344h-78z" />
<glyph unicode="&#xd3;" horiz-adv-x="1748" d="M164 535q0 160 64.5 317.5t181 285.5t300 207.5t400.5 79.5q252 0 435.5 -156.5t183.5 -424.5q0 -217 -113 -415t-330 -328t-487 -130q-291 0 -463 171.5t-172 392.5zM532 444q0 -164 82 -265t217 -101q127 0 227.5 79t158 191.5t95.5 248.5t50 236.5t12 167.5 q0 147 -80 232.5t-217 85.5q-111 0 -206 -71.5t-155.5 -177t-103.5 -229.5t-61.5 -226.5t-18.5 -170.5zM1096 1538l106 344h295l-323 -344h-78z" />
<glyph unicode="&#xd4;" horiz-adv-x="1748" d="M164 535q0 160 64.5 317.5t181 285.5t300 207.5t400.5 79.5q252 0 435.5 -156.5t183.5 -424.5q0 -217 -113 -415t-330 -328t-487 -130q-291 0 -463 171.5t-172 392.5zM532 444q0 -164 82 -265t217 -101q127 0 227.5 79t158 191.5t95.5 248.5t50 236.5t12 167.5 q0 147 -80 232.5t-217 85.5q-111 0 -206 -71.5t-155.5 -177t-103.5 -229.5t-61.5 -226.5t-18.5 -170.5zM840 1544l307 340h225l103 -340h-103l-133 203l-293 -203h-106z" />
<glyph unicode="&#xd5;" horiz-adv-x="1748" d="M164 535q0 160 64.5 317.5t181 285.5t300 207.5t400.5 79.5q252 0 435.5 -156.5t183.5 -424.5q0 -217 -113 -415t-330 -328t-487 -130q-291 0 -463 171.5t-172 392.5zM532 444q0 -164 82 -265t217 -101q127 0 227.5 79t158 191.5t95.5 248.5t50 236.5t12 167.5 q0 147 -80 232.5t-217 85.5q-111 0 -206 -71.5t-155.5 -177t-103.5 -229.5t-61.5 -226.5t-18.5 -170.5zM887 1577q0 123 61 201q57 76 139 75q68 0 169.5 -45t123.5 -45q63 0 78 90h62q2 -121 -53.5 -198.5t-139.5 -77.5q-61 0 -164.5 46t-132.5 46q-63 0 -78 -92h-65z" />
<glyph unicode="&#xd6;" horiz-adv-x="1748" d="M164 535q0 160 64.5 317.5t181 285.5t300 207.5t400.5 79.5q252 0 435.5 -156.5t183.5 -424.5q0 -217 -113 -415t-330 -328t-487 -130q-291 0 -463 171.5t-172 392.5zM532 444q0 -164 82 -265t217 -101q127 0 227.5 79t158 191.5t95.5 248.5t50 236.5t12 167.5 q0 147 -80 232.5t-217 85.5q-111 0 -206 -71.5t-155.5 -177t-103.5 -229.5t-61.5 -226.5t-18.5 -170.5zM877 1689.5q0 59.5 43 102.5t102 43t102 -43t43 -102.5t-43 -102.5t-102 -43t-102 43t-43 102.5zM1243 1689.5q0 59.5 43 102.5t102.5 43t102.5 -43t43 -102.5 t-43 -102.5t-102.5 -43t-102.5 43t-43 102.5z" />
<glyph unicode="&#xd7;" horiz-adv-x="1366" d="M233 299l377 377l-374 375l145 145l375 -375l377 377l147 -147l-375 -375l375 -375l-150 -149l-374 374l-375 -374z" />
<glyph unicode="&#xd8;" horiz-adv-x="1748" d="M164 535q0 160 64.5 317.5t181 285.5t300 207.5t400.5 79.5q193 0 369 -104l114 115l80 -80l-106 -107q162 -162 162 -405q0 -217 -113 -415t-330 -328t-487 -130q-231 0 -393 113l-115 -115l-78 76l111 111q-160 160 -160 379zM532 444q0 -53 5 -73l798 805 q-76 143 -258 143q-129 0 -237.5 -96.5t-172 -238.5t-98.5 -284.5t-37 -255.5zM571 250q31 -78 99.5 -125t160.5 -47q127 0 228.5 81t159 198.5t94.5 258t49 250.5q11 95 10 166v23z" />
<glyph unicode="&#xd9;" horiz-adv-x="1622" d="M243 283q-14 48 -14 104q0 66 19 141l139 516q17 62 17 109q0 132 -132 147l15 97h702l-16 -97q-117 -25 -170 -106.5t-98 -251.5l-115 -418q-21 -76 -21 -140q0 -92 43 -159q74 -113 250 -112q172 0 281.5 93t150.5 251l123 485q28 90 28 161q0 39 -8 73 q-24 94 -145 124l17 97h475l-17 -97q-102 -35 -150 -102.5t-87 -228.5l-121 -498q-37 -150 -109.5 -254t-166 -154.5t-179.5 -71t-180 -20.5q-121 0 -229.5 35t-190 104t-111.5 173zM903 1882h295l107 -344h-78z" />
<glyph unicode="&#xda;" horiz-adv-x="1622" d="M243 283q-14 48 -14 104q0 66 19 141l139 516q17 62 17 109q0 132 -132 147l15 97h702l-16 -97q-117 -25 -170 -106.5t-98 -251.5l-115 -418q-21 -76 -21 -140q0 -92 43 -159q74 -113 250 -112q172 0 281.5 93t150.5 251l123 485q28 90 28 161q0 39 -8 73 q-24 94 -145 124l17 97h475l-17 -97q-102 -35 -150 -102.5t-87 -228.5l-121 -498q-37 -150 -109.5 -254t-166 -154.5t-179.5 -71t-180 -20.5q-121 0 -229.5 35t-190 104t-111.5 173zM1032 1538l107 344h295l-324 -344h-78z" />
<glyph unicode="&#xdb;" horiz-adv-x="1622" d="M243 283q-14 48 -14 104q0 66 19 141l139 516q17 62 17 109q0 132 -132 147l15 97h702l-16 -97q-117 -25 -170 -106.5t-98 -251.5l-115 -418q-21 -76 -21 -140q0 -92 43 -159q74 -113 250 -112q172 0 281.5 93t150.5 251l123 485q28 90 28 161q0 39 -8 73 q-24 94 -145 124l17 97h475l-17 -97q-102 -35 -150 -102.5t-87 -228.5l-121 -498q-37 -150 -109.5 -254t-166 -154.5t-179.5 -71t-180 -20.5q-121 0 -229.5 35t-190 104t-111.5 173zM776 1544l307 340h226l102 -340h-102l-133 203l-293 -203h-107z" />
<glyph unicode="&#xdc;" horiz-adv-x="1622" d="M243 283q-14 48 -14 104q0 66 19 141l139 516q17 62 17 109q0 132 -132 147l15 97h702l-16 -97q-117 -25 -170 -106.5t-98 -251.5l-115 -418q-21 -76 -21 -140q0 -92 43 -159q74 -113 250 -112q172 0 281.5 93t150.5 251l123 485q28 90 28 161q0 39 -8 73 q-24 94 -145 124l17 97h475l-17 -97q-102 -35 -150 -102.5t-87 -228.5l-121 -498q-37 -150 -109.5 -254t-166 -154.5t-179.5 -71t-180 -20.5q-121 0 -229.5 35t-190 104t-111.5 173zM813 1689.5q0 59.5 43 102.5t102.5 43t102.5 -43t43 -102.5t-43 -102.5t-102.5 -43 t-102.5 43t-43 102.5zM1180 1689.5q0 59.5 43 102.5t102 43t102 -43t43 -102.5t-43 -102.5t-102 -43t-102 43t-43 102.5z" />
<glyph unicode="&#xdd;" horiz-adv-x="1386" d="M248 1300l14 97h590l-14 -97q-84 -27 -104 -75q-8 -20 -8 -45q0 -37 17 -86l140 -484l342 461q51 64 51 121q0 9 -1 17q-9 65 -97 91l14 97h428l-14 -97q-20 -2 -38 -10t-37.5 -26.5t-29.5 -29.5t-36 -45l-33 -44l-498 -615l-49 -188q-14 -53 -14 -95q0 -133 139 -151 l-19 -96h-702l16 96q164 18 225 246l45 166l-165 559q-37 129 -71 175t-91 58zM913 1538l107 344h295l-324 -344h-78z" />
<glyph unicode="&#xde;" horiz-adv-x="1386" d="M-8 0l24 96q104 39 148.5 97.5t85.5 203.5l170 631q22 79 22 132q0 34 -9 58q-24 60 -126 82l27 97h684l-27 -97q-88 -33 -137 -82t-70 -126h191q248 0 356.5 -94.5t108.5 -243.5q0 -70 -27 -140.5t-88 -143.5t-186 -119t-295 -46h-279q-5 -27 -5 -50q0 -58 29 -98 q40 -56 132 -61l-14 -96h-715zM594 412h190q164 0 232.5 105.5t68.5 254.5q0 213 -237 213h-92z" />
<glyph unicode="&#xdf;" horiz-adv-x="1236" d="M-309 -272q0 47 32.5 80.5t77.5 33.5q35 0 57.5 -17.5t31 -37.5t19.5 -37.5t28 -17.5q45 0 79 153l164 762q86 401 222.5 589.5t400.5 188.5q174 0 286.5 -86t112.5 -219q0 -117 -93 -194.5t-265 -104.5v-4q283 -115 282 -377q0 -184 -141 -325.5t-326 -141.5 q-90 0 -151.5 41t-61.5 103q0 45 34 77.5t79 32.5q53 0 75.5 -36.5t30 -73.5t27.5 -37q59 0 113.5 172t54.5 299q0 90 -59 146q-52 49 -141 50q-13 0 -27 -2l22 113q150 0 212.5 81t62.5 204q0 84 -38 130t-108 46q-160 0 -227 -281l-168 -682q-119 -477 -260 -618 q-131 -131 -287 -131q-70 0 -110.5 33t-40.5 88z" />
<glyph unicode="&#xe0;" horiz-adv-x="1216" d="M80 260q0 92 40 202.5t111.5 215t192.5 174.5t266 70q162 0 266 -115l50 84h143l-205 -653q-9 -28 -9 -51q0 -8 1 -15q4 -29 25 -29q39 0 106 105h98q-63 -125 -141 -193q-88 -82 -197 -82q-76 0 -116.5 55.5t-42.5 151.5q-168 -207 -351 -207q-104 0 -170.5 80 t-66.5 207zM369 330q0 -70 29.5 -114t74.5 -44q115 0 218.5 179t103.5 339q0 55 -31 90t-80 35q-92 0 -168 -91t-111.5 -199.5t-35.5 -194.5zM518 1384h295l107 -344h-78z" />
<glyph unicode="&#xe1;" horiz-adv-x="1216" d="M80 260q0 92 40 202.5t111.5 215t192.5 174.5t266 70q162 0 266 -115l50 84h143l-205 -653q-9 -28 -9 -51q0 -8 1 -15q4 -29 25 -29q39 0 106 105h98q-63 -125 -141 -193q-88 -82 -197 -82q-76 0 -116.5 55.5t-42.5 151.5q-168 -207 -351 -207q-104 0 -170.5 80 t-66.5 207zM369 330q0 -70 29.5 -114t74.5 -44q115 0 218.5 179t103.5 339q0 55 -31 90t-80 35q-92 0 -168 -91t-111.5 -199.5t-35.5 -194.5zM709 1040l106 344h295l-324 -344h-77z" />
<glyph unicode="&#xe2;" horiz-adv-x="1216" d="M80 260q0 92 40 202.5t111.5 215t192.5 174.5t266 70q162 0 266 -115l50 84h143l-205 -653q-9 -28 -9 -51q0 -8 1 -15q4 -29 25 -29q39 0 106 105h98q-63 -125 -141 -193q-88 -82 -197 -82q-76 0 -116.5 55.5t-42.5 151.5q-168 -207 -351 -207q-104 0 -170.5 80 t-66.5 207zM369 330q0 -70 29.5 -114t74.5 -44q115 0 218.5 179t103.5 339q0 55 -31 90t-80 35q-92 0 -168 -91t-111.5 -199.5t-35.5 -194.5zM453 1047l307 339h225l102 -339h-102l-133 202l-293 -202h-106z" />
<glyph unicode="&#xe3;" horiz-adv-x="1216" d="M80 260q0 92 40 202.5t111.5 215t192.5 174.5t266 70q162 0 266 -115l50 84h143l-205 -653q-9 -28 -9 -51q0 -8 1 -15q4 -29 25 -29q39 0 106 105h98q-63 -125 -141 -193q-88 -82 -197 -82q-76 0 -116.5 55.5t-42.5 151.5q-168 -207 -351 -207q-104 0 -170.5 80 t-66.5 207zM369 330q0 -70 29.5 -114t74.5 -44q115 0 218.5 179t103.5 339q0 55 -31 90t-80 35q-92 0 -168 -91t-111.5 -199.5t-35.5 -194.5zM500 1079q0 123 61 201q57 76 139 76q68 0 169.5 -45t123.5 -45q63 0 78 90h62q2 -121 -53.5 -199t-139.5 -78q-61 0 -164.5 46 t-132.5 46q-63 0 -78 -92h-65z" />
<glyph unicode="&#xe4;" horiz-adv-x="1216" d="M80 260q0 92 40 202.5t111.5 215t192.5 174.5t266 70q162 0 266 -115l50 84h143l-205 -653q-9 -28 -9 -51q0 -8 1 -15q4 -29 25 -29q39 0 106 105h98q-63 -125 -141 -193q-88 -82 -197 -82q-76 0 -116.5 55.5t-42.5 151.5q-168 -207 -351 -207q-104 0 -170.5 80 t-66.5 207zM369 330q0 -70 29.5 -114t74.5 -44q115 0 218.5 179t103.5 339q0 55 -31 90t-80 35q-92 0 -168 -91t-111.5 -199.5t-35.5 -194.5zM489 1192q0 59 43 102t102.5 43t102.5 -43t43 -102t-43 -102t-102.5 -43t-102.5 43t-43 102zM856 1192q0 59 43 102t102.5 43 t102.5 -43t43 -102t-43 -102t-102.5 -43t-102.5 43t-43 102z" />
<glyph unicode="&#xe5;" horiz-adv-x="1216" d="M80 260q0 92 40 202.5t111.5 215t192.5 174.5t266 70q162 0 266 -115l50 84h143l-205 -653q-9 -28 -9 -51q0 -8 1 -15q4 -29 25 -29q39 0 106 105h98q-63 -125 -141 -193q-88 -82 -197 -82q-76 0 -116.5 55.5t-42.5 151.5q-168 -207 -351 -207q-104 0 -170.5 80 t-66.5 207zM369 330q0 -70 29.5 -114t74.5 -44q115 0 218.5 179t103.5 339q0 55 -31 90t-80 35q-92 0 -168 -91t-111.5 -199.5t-35.5 -194.5zM614 1219q0 86 60.5 146t146.5 60t147.5 -60t61.5 -146t-61.5 -147.5t-147.5 -61.5t-146.5 61.5t-60.5 147.5zM688 1218.5 q0 -55.5 39 -95.5t94.5 -40t95 40t39.5 95.5t-39.5 94.5t-95 39t-94.5 -39t-39 -94.5z" />
<glyph unicode="&#xe6;" horiz-adv-x="1642" d="M51 258q0 209 168 377q115 115 322 183.5t587 80.5q29 0 129.5 11.5t135.5 11.5q207 0 206.5 -166t-154 -272.5t-454.5 -143.5q6 -92 63.5 -152.5t141.5 -60.5q143 0 258 125h105q-47 -92 -184.5 -186.5t-319.5 -94.5q-133 0 -221.5 52.5t-110.5 142.5 q-156 -193 -371 -193q-137 0 -219 77t-82 208zM344 301q0 -70 42 -114t108 -44q51 0 114.5 40t100.5 98q2 135 104 274t270 244l-4 4q-432 -37 -600 -205q-66 -66 -100.5 -146.5t-34.5 -150.5zM1001 422q205 25 309.5 112t104.5 181q0 41 -30.5 67.5t-77.5 26.5 q-109 0 -188 -109.5t-118 -277.5z" />
<glyph unicode="&#xe7;" horiz-adv-x="1024" d="M0 -385l10 35q106 -16 154 -17q82 0 134 33t52 82q0 47 -45 76q-26 17 -66 17q-29 0 -65 -9l-18 33l192 117q-131 23 -205.5 112.5t-74.5 231.5q0 109 44 214t122.5 191t203.5 138.5t274.5 52.5t222.5 -58.5t73 -132.5q0 -53 -35 -88t-88 -35q-111 0 -123 109 q-6 59 -20.5 78.5t-61.5 19.5q-121 0 -221.5 -130t-100.5 -290q0 -111 64.5 -181.5t167.5 -70.5q57 0 119.5 28t105.5 71h143q-229 -266 -520 -269l-49 -28v-4q102 -4 158.5 -53.5t56.5 -114.5q0 -88 -93 -139.5t-257 -51.5q-148 0 -254 33z" />
<glyph unicode="&#xe8;" horiz-adv-x="1044" d="M57 289q0 238 218.5 435.5t482.5 197.5q109 0 177.5 -58.5t68.5 -150.5q0 -164 -178.5 -270.5t-469.5 -114.5q0 -84 55.5 -141.5t137.5 -57.5q72 0 157 35t130 88h137q-227 -279 -543 -279q-186 0 -279.5 88.5t-93.5 227.5zM360 428q203 18 321 93t118 188q0 43 -34 74.5 t-81 31.5q-125 0 -217.5 -123t-106.5 -264zM473 1384h295l106 -344h-77z" />
<glyph unicode="&#xe9;" horiz-adv-x="1044" d="M57 289q0 238 218.5 435.5t482.5 197.5q109 0 177.5 -58.5t68.5 -150.5q0 -164 -178.5 -270.5t-469.5 -114.5q0 -84 55.5 -141.5t137.5 -57.5q72 0 157 35t130 88h137q-227 -279 -543 -279q-186 0 -279.5 88.5t-93.5 227.5zM360 428q203 18 321 93t118 188q0 43 -34 74.5 t-81 31.5q-125 0 -217.5 -123t-106.5 -264zM623 1040l106 344h295l-324 -344h-77z" />
<glyph unicode="&#xea;" horiz-adv-x="1044" d="M57 289q0 238 218.5 435.5t482.5 197.5q109 0 177.5 -58.5t68.5 -150.5q0 -164 -178.5 -270.5t-469.5 -114.5q0 -84 55.5 -141.5t137.5 -57.5q72 0 157 35t130 88h137q-227 -279 -543 -279q-186 0 -279.5 88.5t-93.5 227.5zM360 428q203 18 321 93t118 188q0 43 -34 74.5 t-81 31.5q-125 0 -217.5 -123t-106.5 -264zM367 1047l307 340h225l102 -340h-102l-133 202l-293 -202h-106z" />
<glyph unicode="&#xeb;" horiz-adv-x="1044" d="M57 289q0 238 218.5 435.5t482.5 197.5q109 0 177.5 -58.5t68.5 -150.5q0 -164 -178.5 -270.5t-469.5 -114.5q0 -84 55.5 -141.5t137.5 -57.5q72 0 157 35t130 88h137q-227 -279 -543 -279q-186 0 -279.5 88.5t-93.5 227.5zM360 428q203 18 321 93t118 188q0 43 -34 74.5 t-81 31.5q-125 0 -217.5 -123t-106.5 -264zM403 1192q0 59 43 102t102.5 43t102.5 -43t43 -102t-43 -102t-102.5 -43t-102.5 43t-43 102zM770 1192q0 59 43 102t102.5 43t102.5 -43t43 -102t-43 -102t-102.5 -43t-102.5 43t-43 102z" />
<glyph unicode="&#xec;" d="M29 633q63 131 167.5 210t219.5 79q106 0 144 -85q16 -36 16 -80q0 -59 -29 -132l-146 -371q-18 -48 -17 -75q0 -35 30 -36q27 0 74 44t75 83h90q-182 -297 -415 -297q-98 0 -136 65q-17 30 -17 69q0 46 24 106l186 483q12 31 3 50.5t-30 19.5q-59 0 -143 -133h-96z M291 1384h295l106 -344h-78z" />
<glyph unicode="&#xed;" d="M29 633q63 131 167.5 210t219.5 79q106 0 144 -85q16 -36 16 -80q0 -59 -29 -132l-146 -371q-18 -48 -17 -75q0 -35 30 -36q27 0 74 44t75 83h90q-182 -297 -415 -297q-98 0 -136 65q-17 30 -17 69q0 46 24 106l186 483q12 31 3 50.5t-30 19.5q-59 0 -143 -133h-96z M440 1040l107 344h295l-324 -344h-78z" />
<glyph unicode="&#xee;" d="M29 633q63 131 167.5 210t219.5 79q106 0 144 -85q16 -36 16 -80q0 -59 -29 -132l-146 -371q-18 -48 -17 -75q0 -35 30 -36q27 0 74 44t75 83h90q-182 -297 -415 -297q-98 0 -136 65q-17 30 -17 69q0 46 24 106l186 483q12 31 3 50.5t-30 19.5q-59 0 -143 -133h-96z M184 1047l308 339h225l102 -339h-102l-133 202l-293 -202h-107z" />
<glyph unicode="&#xef;" d="M29 633q63 131 167.5 210t219.5 79q106 0 144 -85q16 -36 16 -80q0 -59 -29 -132l-146 -371q-18 -48 -17 -75q0 -35 30 -36q27 0 74 44t75 83h90q-182 -297 -415 -297q-98 0 -136 65q-17 30 -17 69q0 46 24 106l186 483q12 31 3 50.5t-30 19.5q-59 0 -143 -133h-96z M221 1192q0 59 43 102t102.5 43t102.5 -43t43 -102t-43 -102t-102.5 -43t-102.5 43t-43 102zM588 1192q0 59 43 102t102.5 43t102.5 -43t43 -102t-43 -102t-102.5 -43t-102.5 43t-43 102z" />
<glyph unicode="&#xf0;" horiz-adv-x="1198" d="M86 362q0 223 178 391.5t414 168.5q100 0 182 -43l2 39q0 90 -31 202l-192 -84l-37 86l203 88q-37 98 -92 168l106 47q84 -59 142 -147l215 94l36 -86l-202 -88q66 -123 99.5 -267.5t33.5 -252.5q0 -197 -57.5 -341t-150.5 -219t-191.5 -110t-202.5 -35 q-195 0 -325 111.5t-130 277.5zM369 272q0 -92 44 -147t117 -55q82 0 146 63q66 66 117 231.5t51 241.5q0 92 -45 150.5t-117 58.5q-86 0 -152.5 -71.5t-98.5 -172t-47 -179.5t-15 -120z" />
<glyph unicode="&#xf1;" horiz-adv-x="1300" d="M35 643q72 129 177 204t220 75q63 0 99 -34t36 -93q0 -96 -75 -293l4 -4q113 221 250 322.5t266 101.5q82 0 130 -47.5t48 -126.5q0 -55 -33 -150l-139 -369q-14 -37 -7 -61.5t33 -24.5q25 0 64 34t74 85h86q-70 -127 -179.5 -208t-211.5 -81q-94 0 -129 76 q-15 32 -15 76q0 59 27 137l158 424q8 20 8 39q0 14 -4 27q-10 31 -37 30q-106 0 -288.5 -271t-250.5 -511h-276l211 690q8 27 8 44q0 32 -27 32q-57 0 -127 -123h-100zM541 1079q0 123 61 201q57 76 139 76q68 0 169.5 -45t123.5 -45q63 0 78 90h62q2 -121 -53.5 -199 t-139.5 -78q-61 0 -164.5 46t-132.5 46q-63 0 -78 -92h-65z" />
<glyph unicode="&#xf2;" horiz-adv-x="1173" d="M74 375q0 205 160.5 376t431.5 171q199 0 321.5 -111t122.5 -287q0 -225 -167 -388t-421 -163q-203 0 -325.5 121t-122.5 281zM356 284.5q0 -94.5 48.5 -154.5t121.5 -60q84 0 147.5 67.5t94.5 164.5t45 180t14 141q0 94 -42 148t-117 54q-94 0 -170 -102t-109 -223 t-33 -215.5zM537 1384h294l107 -344h-78z" />
<glyph unicode="&#xf3;" horiz-adv-x="1173" d="M74 375q0 205 160.5 376t431.5 171q199 0 321.5 -111t122.5 -287q0 -225 -167 -388t-421 -163q-203 0 -325.5 121t-122.5 281zM356 284.5q0 -94.5 48.5 -154.5t121.5 -60q84 0 147.5 67.5t94.5 164.5t45 180t14 141q0 94 -42 148t-117 54q-94 0 -170 -102t-109 -223 t-33 -215.5zM686 1040l107 344h294l-323 -344h-78z" />
<glyph unicode="&#xf4;" horiz-adv-x="1173" d="M74 375q0 205 160.5 376t431.5 171q199 0 321.5 -111t122.5 -287q0 -225 -167 -388t-421 -163q-203 0 -325.5 121t-122.5 281zM356 284.5q0 -94.5 48.5 -154.5t121.5 -60q84 0 147.5 67.5t94.5 164.5t45 180t14 141q0 94 -42 148t-117 54q-94 0 -170 -102t-109 -223 t-33 -215.5zM430 1047l307 339h226l102 -339h-102l-134 202l-292 -202h-107z" />
<glyph unicode="&#xf5;" horiz-adv-x="1173" d="M74 375q0 205 160.5 376t431.5 171q199 0 321.5 -111t122.5 -287q0 -225 -167 -388t-421 -163q-203 0 -325.5 121t-122.5 281zM356 284.5q0 -94.5 48.5 -154.5t121.5 -60q84 0 147.5 67.5t94.5 164.5t45 180t14 141q0 94 -42 148t-117 54q-94 0 -170 -102t-109 -223 t-33 -215.5zM477 1079q0 123 62 201q57 76 139 76q68 0 169 -45t124 -45q63 0 78 90h61q2 -121 -53.5 -199t-138.5 -78q-61 0 -165 46t-132 46q-63 0 -78 -92h-66z" />
<glyph unicode="&#xf6;" horiz-adv-x="1173" d="M74 375q0 205 160.5 376t431.5 171q199 0 321.5 -111t122.5 -287q0 -225 -167 -388t-421 -163q-203 0 -325.5 121t-122.5 281zM356 284.5q0 -94.5 48.5 -154.5t121.5 -60q84 0 147.5 67.5t94.5 164.5t45 180t14 141q0 94 -42 148t-117 54q-94 0 -170 -102t-109 -223 t-33 -215.5zM467 1192q0 59 43 102t102.5 43t102.5 -43t43 -102t-43 -102t-102.5 -43t-102.5 43t-43 102zM834 1192q0 59 43 102t102 43t102 -43t43 -102t-43 -102t-102 -43t-102 43t-43 102z" />
<glyph unicode="&#xf7;" horiz-adv-x="1368" d="M203 571v205h1110v-205h-1110zM633 254q0 53 36 89t89 36t89 -36t36 -89t-36 -89t-89 -36t-89 36t-36 89zM633 1093.5q0 53.5 36 89.5t89 36t89 -36t36 -89.5t-36 -89t-89 -35.5t-89 35.5t-36 89z" />
<glyph unicode="&#xf8;" horiz-adv-x="1173" d="M74 375q0 205 160.5 376t431.5 171q145 0 256 -64l77 80l74 -61l-76 -78q53 -41 83 -118t30 -157q0 -225 -167 -388t-421 -163q-154 0 -258 70l-90 -92l-72 63l86 88q-114 115 -114 273zM356 276l453 465q-55 84 -141 84q-72 0 -134.5 -59t-99.5 -146.5t-57.5 -178.5 t-20.5 -165zM383 166q16 -41 56 -68.5t87 -27.5q84 0 147.5 67.5t94.5 164.5t45 180t14 141z" />
<glyph unicode="&#xf9;" horiz-adv-x="1300" d="M29 631q55 131 158.5 211t220.5 80q143 0 143 -156q0 -70 -37 -174l-121 -344q-12 -33 -12 -59q0 -14 4 -26q10 -34 41 -34q90 0 208 160t197.5 335t102.5 275h280l-206 -678q-10 -36 -11 -58q0 -34 25 -34t72 49t84 113h84q-76 -150 -180.5 -234t-215.5 -84 q-88 0 -126 61q-21 33 -21 78q0 36 14 81l64 202l-4 4q-221 -426 -504 -426q-111 0 -157 89q-22 42 -22 100q0 63 27 145l137 379q11 29 11 47q0 33 -35 33q-29 0 -72 -45t-59 -90h-90zM559 1384h295l107 -344h-78z" />
<glyph unicode="&#xfa;" horiz-adv-x="1300" d="M29 631q55 131 158.5 211t220.5 80q143 0 143 -156q0 -70 -37 -174l-121 -344q-12 -33 -12 -59q0 -14 4 -26q10 -34 41 -34q90 0 208 160t197.5 335t102.5 275h280l-206 -678q-10 -36 -11 -58q0 -34 25 -34t72 49t84 113h84q-76 -150 -180.5 -234t-215.5 -84 q-88 0 -126 61q-21 33 -21 78q0 36 14 81l64 202l-4 4q-221 -426 -504 -426q-111 0 -157 89q-22 42 -22 100q0 63 27 145l137 379q11 29 11 47q0 33 -35 33q-29 0 -72 -45t-59 -90h-90zM750 1040l106 344h295l-324 -344h-77z" />
<glyph unicode="&#xfb;" horiz-adv-x="1300" d="M29 631q55 131 158.5 211t220.5 80q143 0 143 -156q0 -70 -37 -174l-121 -344q-12 -33 -12 -59q0 -14 4 -26q10 -34 41 -34q90 0 208 160t197.5 335t102.5 275h280l-206 -678q-10 -36 -11 -58q0 -34 25 -34t72 49t84 113h84q-76 -150 -180.5 -234t-215.5 -84 q-88 0 -126 61q-21 33 -21 78q0 36 14 81l64 202l-4 4q-221 -426 -504 -426q-111 0 -157 89q-22 42 -22 100q0 63 27 145l137 379q11 29 11 47q0 33 -35 33q-29 0 -72 -45t-59 -90h-90zM494 1047l307 339h225l102 -339h-102l-133 202l-293 -202h-106z" />
<glyph unicode="&#xfc;" horiz-adv-x="1300" d="M29 631q55 131 158.5 211t220.5 80q143 0 143 -156q0 -70 -37 -174l-121 -344q-12 -33 -12 -59q0 -14 4 -26q10 -34 41 -34q90 0 208 160t197.5 335t102.5 275h280l-206 -678q-10 -36 -11 -58q0 -34 25 -34t72 49t84 113h84q-76 -150 -180.5 -234t-215.5 -84 q-88 0 -126 61q-21 33 -21 78q0 36 14 81l64 202l-4 4q-221 -426 -504 -426q-111 0 -157 89q-22 42 -22 100q0 63 27 145l137 379q11 29 11 47q0 33 -35 33q-29 0 -72 -45t-59 -90h-90zM530 1192q0 59 43 102t102.5 43t102.5 -43t43 -102t-43 -102t-102.5 -43t-102.5 43 t-43 102zM897 1192q0 59 43 102t102.5 43t102.5 -43t43 -102t-43 -102t-102.5 -43t-102.5 43t-43 102z" />
<glyph unicode="&#xfd;" horiz-adv-x="1130" d="M-199 -256q0 57 43 97t103 40q45 0 115.5 -43t121.5 -43q94 0 244 160l-172 696q-20 82 -31 86q-4 2 -10 2q-49 0 -94 -133h-96q59 166 133.5 241t177.5 75q82 0 119 -42t61 -141l141 -557q172 178 172 322q0 37 -17 131t-17 133q0 70 38.5 112t102.5 42q70 0 114 -49.5 t44 -127.5q0 -129 -117 -307q-156 -240 -356 -442q-174 -174 -316 -272q-166 -117 -317 -117q-84 0 -135.5 37t-51.5 100zM625 1040l106 344h295l-324 -344h-77z" />
<glyph unicode="&#xfe;" horiz-adv-x="1259" d="M-174 -385l31 96q106 2 148 32t65 105l376 1317q11 21 12 42q0 14 -5 27q-12 34 -76 34h-82l29 94q215 2 411 63h60l-144 -522q29 6 68 12.5t80 6.5q188 0 298.5 -97.5t110.5 -263.5q0 -61 -16 -128.5t-70.5 -152.5t-139.5 -152t-238.5 -112t-352.5 -45l-41 -135 q-8 -25 -8 -45q0 -32 20 -50q33 -30 117 -30h41l-31 -96h-663zM418 61q119 0 210 35t143 86t86 119t45 122t11 105q0 35 -8 73t-29.5 84t-71.5 76t-124 30q-10 0 -33.5 -2.5t-30.5 -2.5z" />
<glyph unicode="&#xff;" horiz-adv-x="1130" d="M-199 -256q0 57 43 97t103 40q45 0 115.5 -43t121.5 -43q94 0 244 160l-172 696q-20 82 -31 86q-4 2 -10 2q-49 0 -94 -133h-96q59 166 133.5 241t177.5 75q82 0 119 -42t61 -141l141 -557q172 178 172 322q0 37 -17 131t-17 133q0 70 38.5 112t102.5 42q70 0 114 -49.5 t44 -127.5q0 -129 -117 -307q-156 -240 -356 -442q-174 -174 -316 -272q-166 -117 -317 -117q-84 0 -135.5 37t-51.5 100zM406 1192q0 59 43 102t102 43t102 -43t43 -102t-43 -102t-102 -43t-102 43t-43 102zM772 1192q0 59 43 102t102.5 43t102.5 -43t43 -102t-43 -102 t-102.5 -43t-102.5 43t-43 102z" />
<glyph unicode="&#x152;" horiz-adv-x="2217" d="M172 559q0 217 114.5 411.5t304 310.5t402.5 116h1305l-70 -318h-106q-25 221 -275 221h-493v-4q129 -63 198.5 -197t69.5 -319h98q102 0 154.5 33t114.5 133h110l-121 -454h-110q-25 117 -62 154.5t-123 37.5h-71q-53 -203 -151.5 -332t-325.5 -252v-4h362 q338 0 518 264h146l-154 -360h-1317q-221 0 -369.5 160.5t-148.5 398.5zM526 426q0 -156 72 -240t211 -84q109 0 203 96.5t149.5 238t86 287.5t30.5 263q0 141 -63.5 222t-174.5 81q-137 0 -243.5 -100t-161.5 -247.5t-82 -282t-27 -234.5z" />
<glyph unicode="&#x153;" horiz-adv-x="1728" d="M68 373q0 94 37.5 189t107.5 176t185.5 132.5t254.5 51.5q238 0 365 -168q186 168 430 168q133 0 186.5 -53.5t53.5 -118.5q0 -109 -91.5 -198t-224.5 -139.5t-293 -72.5q4 -94 65.5 -152.5t155.5 -58.5q168 0 242 113h96q-63 -127 -187 -198t-273 -71q-203 0 -287 148 q-152 -147 -381 -147.5t-335.5 119.5t-106.5 280zM360 317q0 -248 185 -247q86 0 145.5 53t87 139t38.5 165t11 163q0 106 -48 165.5t-134 59.5q-76 0 -133 -45t-89 -120t-47.5 -159t-15.5 -174zM1085 426q207 31 308.5 103.5t101.5 175.5q0 47 -31.5 75.5t-83.5 28.5 q-106 0 -183 -99.5t-112 -283.5z" />
<glyph unicode="&#x178;" horiz-adv-x="1386" d="M248 1300l14 97h590l-14 -97q-84 -27 -104 -75q-8 -20 -8 -45q0 -37 17 -86l140 -484l342 461q51 64 51 121q0 9 -1 17q-9 65 -97 91l14 97h428l-14 -97q-20 -2 -38 -10t-37.5 -26.5t-29.5 -29.5t-36 -45l-33 -44l-498 -615l-49 -188q-14 -53 -14 -95q0 -133 139 -151 l-19 -96h-702l16 96q164 18 225 246l45 166l-165 559q-37 129 -71 175t-91 58zM694 1689.5q0 59.5 43 102.5t102.5 43t102.5 -43t43 -102.5t-43 -102.5t-102.5 -43t-102.5 43t-43 102.5zM1061 1689.5q0 59.5 43 102.5t102.5 43t102.5 -43t43 -102.5t-43 -102.5t-102.5 -43 t-102.5 43t-43 102.5z" />
<glyph unicode="&#x2c6;" d="M184 1047l308 339h225l102 -339h-102l-133 202l-293 -202h-107z" />
<glyph unicode="&#x2dc;" d="M231 1079q0 123 62 201q57 76 139 76q68 0 169 -45t124 -45q63 0 78 90h61q2 -121 -53 -199t-139 -78q-61 0 -165 46t-132 46q-63 0 -78 -92h-66z" />
<glyph unicode="&#x2013;" horiz-adv-x="1024" d="M18 387v250h1049v-250h-1049z" />
<glyph unicode="&#x2014;" horiz-adv-x="2048" d="M18 387v250h2073v-250h-2073z" />
<glyph unicode="&#x2018;" horiz-adv-x="747" d="M453 1034q0 174 144 282.5t308 108.5l-16 -94q-100 -14 -173 -59t-73 -98q0 -29 22.5 -54.5t48 -43t48 -49.5t22.5 -71q0 -61 -39.5 -103t-105.5 -42q-80 0 -133 59.5t-53 163.5z" />
<glyph unicode="&#x2019;" horiz-adv-x="747" d="M184 811l17 94q100 14 172.5 59.5t72.5 98.5q0 29 -22.5 54.5t-48 43t-48 49t-22.5 70.5q0 61 40 103t106 42q80 0 133 -59t53 -164q0 -174 -144.5 -282.5t-308.5 -108.5z" />
<glyph unicode="&#x201a;" d="M6 -309l17 94q100 14 172.5 59t72.5 99q0 37 -35.5 66.5t-70.5 64.5t-35 86q0 61 40 103t105 42q80 0 133.5 -59.5t53.5 -163.5q0 -174 -144.5 -282.5t-308.5 -108.5z" />
<glyph unicode="&#x201c;" horiz-adv-x="1236" d="M471 1034q0 174 144.5 282.5t308.5 108.5l-17 -94q-100 -14 -172.5 -59t-72.5 -98q0 -29 22.5 -54.5t48 -43t48 -49.5t22.5 -71q0 -61 -40 -103t-106 -42q-80 0 -133 59.5t-53 163.5zM942 1034q0 174 144.5 282.5t308.5 108.5l-17 -94q-100 -14 -172.5 -59t-72.5 -98 q0 -29 22.5 -54.5t48 -43t48 -49.5t22.5 -71q0 -61 -40 -103t-106 -42q-80 0 -133 59.5t-53 163.5z" />
<glyph unicode="&#x201d;" horiz-adv-x="1236" d="M213 811l16 94q100 14 173 59.5t73 98.5q0 29 -22.5 54.5t-48 43t-48 49t-22.5 70.5q0 61 40 103t105 42q80 0 133.5 -59t53.5 -164q0 -174 -144.5 -282.5t-308.5 -108.5zM684 811l16 94q100 14 173 59.5t73 98.5q0 29 -22.5 54.5t-48 43t-48 49t-22.5 70.5q0 61 40 103 t105 42q80 0 133.5 -59t53.5 -164q0 -174 -144.5 -282.5t-308.5 -108.5z" />
<glyph unicode="&#x201e;" horiz-adv-x="1236" d="M47 -309l16 94q100 14 173 59t73 99q0 37 -35.5 66.5t-70.5 64.5t-35 86q0 61 40 103t105 42q80 0 133.5 -59.5t53.5 -163.5q0 -174 -144.5 -282.5t-308.5 -108.5zM518 -309l17 94q100 14 172.5 59t72.5 99q0 29 -22.5 54.5t-48 42.5t-48 49t-22.5 71q0 61 40 103t105 42 q80 0 133.5 -59.5t53.5 -163.5q0 -174 -144.5 -282.5t-308.5 -108.5z" />
<glyph unicode="&#x2022;" horiz-adv-x="716" d="M147 678q0 119 83 202t202 83t203 -83t84 -202t-84 -203t-203 -84t-202 84t-83 203z" />
<glyph unicode="&#x2026;" horiz-adv-x="2048" d="M154 170q0 78 54 132t132 54t133 -54t55 -132t-55 -133t-133 -55t-132 55t-54 133zM838 170q0 78 54 132t132 54t133 -54t55 -132t-55 -133t-133 -55t-132 55t-54 133zM1522 170q0 78 54 132t132 54t133 -54t55 -132t-55 -133t-133 -55t-132 55t-54 133z" />
<glyph unicode="&#x2039;" horiz-adv-x="636" d="M145 539q129 154 203 266l94 143l7 10h229q-47 -88 -168 -247q-72 -98 -143 -172l4 -15l32 -137q37 -160 60 -315h-201l-2 12l-27 125q-35 154 -65 254q-11 41 -23 76z" />
<glyph unicode="&#x203a;" horiz-adv-x="636" d="M-2 72q51 94 170 247q86 113 141 173l-4 14q-29 100 -63 282q-12 61 -29 170h201l2 -12l26 -127q23 -102 66 -252q20 -66 24 -75q-111 -121 -204 -267l-95 -143l-6 -10h-229z" />
<glyph unicode="&#x20ac;" horiz-adv-x="1110" d="M43 483l39 140h96q6 57 19 112h-129l38 139h132q82 219 238.5 355.5t350.5 136.5q221 0 371 -137l-47 -258h-82q0 127 -60.5 215t-166.5 88q-113 0 -197 -111.5t-135 -288.5h543l-39 -139h-537q-12 -82 -16 -112h530l-39 -140h-499v-4q0 -182 50 -291.5t152 -109.5 q111 0 279 139l65 -80q-176 -166 -397 -166q-188 0 -305 147.5t-125 364.5h-129z" />
<glyph unicode="&#x2122;" horiz-adv-x="2048" d="M-4 1130v228h770v-228h-33q-8 94 -53 134.5t-141 40.5h-35v-588q0 -90 15.5 -109.5t86.5 -23.5v-35h-450v35q74 4 88 23.5t14 109.5v588h-33q-96 0 -141 -40t-55 -135h-33zM877 549v35q76 4 93 24.5t17 108.5v469q0 84 -17.5 108.5t-74.5 24.5h-18v39h368l232 -498 l227 498h348v-39q-66 0 -84 -23.5t-18 -109.5v-498q0 -53 21.5 -77.5t80.5 -26.5v-35h-461v35q74 0 93.5 23.5t19.5 109.5v502h-4l-314 -670h-24l-315 670h-5v-529q0 -63 25 -84.5t90 -21.5v-35h-280z" />
<glyph unicode="&#xe000;" horiz-adv-x="920" d="M0 920h920v-920h-920v920z" />
<glyph unicode="&#xfb01;" horiz-adv-x="1343" d="M-379 -248q0 49 36 81t91 32q59 0 86 -38t40 -76t36 -38q70 0 127 211l235 856h-188l20 107h205q55 193 193 330q209 209 493 208q154 0 255.5 -59t101.5 -149q0 -51 -36 -85t-89 -34q-61 0 -94 32q-25 25 -33 62t-9 62.5t-26 45t-82 19.5q-135 0 -244.5 -122 t-144.5 -310h274q268 0 402 39h28l-225 -733q-4 -12 -3 -22q0 -28 32 -28q57 0 125 119h104q-68 -133 -172 -211t-217 -78q-102 0 -141 64q-21 34 -21 81q0 42 17 95l139 455q10 31 10 53q0 20 -8 33q-16 27 -74 26h-303l-147 -534q-86 -315 -235.5 -477t-352.5 -162 q-94 0 -149.5 39.5t-55.5 105.5z" />
<glyph unicode="&#xfb02;" horiz-adv-x="1343" d="M-379 -248q0 47 38 80t91 33q45 0 72.5 -23.5t35 -52.5t18.5 -52.5t32 -23.5q70 0 135 240l225 827h-184l20 107h203q102 260 281.5 399t419.5 139q90 0 198 -39q86 8 185 39h61l-377 -1220q-6 -19 -6 -33q0 -29 31 -29q53 0 127 117h102q-59 -127 -167.5 -207 t-225.5 -80q-78 0 -130 57q-31 33 -31 86q0 37 16 85l178 579h-410l-137 -497q-186 -676 -596 -676q-92 0 -148.5 39.5t-56.5 105.5zM590 887h411l97 305q2 66 -26 95.5t-91 29.5q-109 0 -217 -96t-174 -334z" />
<glyph unicode="&#xfb03;" horiz-adv-x="2045" d="M-356 -250q0 47 36.5 82t86.5 35q37 0 64.5 -21.5t41.5 -47t33.5 -47t38.5 -21.5q31 0 56.5 51t59.5 182l222 817h-129l20 107h141q94 289 215 409q129 129 297 129q82 0 144.5 -48t62.5 -109q0 -47 -36.5 -82t-86.5 -35q-37 0 -62.5 24.5t-36.5 55.5t-26.5 55.5 t-33.5 24.5q-33 0 -47 -56l-99 -368h162l-14 -107h-179l-108 -391q-131 -475 -291 -635q-147 -147 -321 -147q-90 0 -150.5 40t-60.5 103zM326 -250q0 47 36.5 82t86.5 35q37 0 64.5 -21.5t41.5 -47t33.5 -47t38.5 -21.5q31 0 56.5 51t59.5 182l222 817h-129l20 107h141 q94 289 215 409q129 129 297 129q82 0 144.5 -48t62.5 -109q0 -47 -37 -82t-86 -35q-37 0 -62.5 24.5t-36.5 55.5t-26.5 55.5t-33.5 24.5q-33 0 -48 -56l-98 -368h162l-14 -107h-179l-108 -391q-131 -475 -291 -635q-147 -147 -321 -147q-90 0 -150.5 40t-60.5 103z M1393 633q63 131 167.5 210t219.5 79q106 0 144 -85q16 -36 16 -80q0 -59 -29 -132l-146 -371q-18 -48 -17 -75q0 -35 30 -36q27 0 73.5 44t75.5 83h90q-182 -297 -415 -297q-98 0 -136 65q-17 30 -17 69q0 46 24 106l186 483q12 31 3 50.5t-30 19.5q-59 0 -143 -133h-96z M1821 1271.5q0 63.5 45 108.5t108.5 45t108.5 -45t45 -108.5t-45 -108.5t-108.5 -45t-108.5 45t-45 108.5z" />
<glyph unicode="&#xfb04;" horiz-adv-x="1982" d="M-356 -250q0 47 36.5 82t86.5 35q37 0 64.5 -21.5t41.5 -47t33.5 -47t38.5 -21.5q31 0 56.5 51t59.5 182l222 817h-129l20 107h141q94 289 215 409q129 129 297 129q82 0 144.5 -48t62.5 -109q0 -47 -36.5 -82t-86.5 -35q-37 0 -62.5 24.5t-36.5 55.5t-26.5 55.5 t-33.5 24.5q-33 0 -47 -56l-99 -368h162l-14 -107h-179l-108 -391q-131 -475 -291 -635q-147 -147 -321 -147q-90 0 -150.5 40t-60.5 103zM326 -250q0 47 36.5 82t86.5 35q37 0 64.5 -21.5t41.5 -47t33.5 -47t38.5 -21.5q31 0 56.5 51t59.5 182l222 817h-129l20 107h141 q94 289 215 409q129 129 297 129q82 0 144.5 -48t62.5 -109q0 -47 -37 -82t-86 -35q-37 0 -62.5 24.5t-36.5 55.5t-26.5 55.5t-33.5 24.5q-33 0 -48 -56l-98 -368h162l-14 -107h-179l-108 -391q-131 -475 -291 -635q-147 -147 -321 -147q-90 0 -150.5 40t-60.5 103z M1421 129q0 45 39 168l279 881q7 21 6 37q0 53 -72 53h-80l29 94q203 0 410 63h57l-383 -1212q-8 -26 -8 -43q0 -35 32.5 -35t72.5 37t69 90h90q-59 -121 -160.5 -205t-210.5 -84q-80 0 -125 42t-45 114z" />
</font>
</defs>
</svg>
